<svg width="22" height="12" viewBox="0 0 22 12" fill="none" xmlns="http://www.w3.org/2000/svg">
<path fill-rule="evenodd" clip-rule="evenodd" d="M0.393479 0.343186C0.00295487 0.73371 0.00295487 1.36688 0.393479 1.7574L10.2796 11.6435C10.2839 11.648 10.2883 11.6525 10.2927 11.6569C10.501 11.8652 10.7783 11.9624 11.0509 11.9485C11.2896 11.9364 11.5249 11.8392 11.7072 11.6569C11.7114 11.6527 11.7155 11.6485 11.7197 11.6442L21.6064 1.75741C21.997 1.36689 21.997 0.733722 21.6064 0.343198C21.2159 -0.0473266 20.5828 -0.0473265 20.1922 0.343198L11 9.53546L1.80769 0.343186C1.41717 -0.0473381 0.784003 -0.0473381 0.393479 0.343186Z" fill="#222222"/>
</svg>
