<svg width="60" height="60" viewBox="0 0 60 60" fill="none" xmlns="http://www.w3.org/2000/svg">
<g clip-path="url(#clip0_239_2335)">
<path d="M60 0H0V60H60V0Z" fill="white"/>
<path d="M16.038 19.0319V34.6559C16.038 36.2999 17.376 37.6499 19.032 37.6499H39.972V22.1879H28.374L26.364 19.7519C25.986 19.2959 25.422 19.0259 24.828 19.0259H16.044L16.038 19.0319Z" fill="white"/>
<path d="M39.972 38.1479H19.032C17.106 38.1479 15.54 36.5819 15.54 34.6559V19.0319C15.54 18.7559 15.762 18.5339 16.038 18.5339H24.822C25.566 18.5339 26.268 18.8639 26.742 19.4399L28.602 21.6899H39.966C40.242 21.6899 40.464 21.9119 40.464 22.1879V37.6499C40.464 37.9259 40.242 38.1479 39.966 38.1479H39.972ZM16.536 19.5299V34.6559C16.536 36.0299 17.652 37.1519 19.032 37.1519H39.474V22.6859H28.374C28.224 22.6859 28.086 22.6199 27.99 22.5059L25.98 20.0759C25.692 19.7279 25.272 19.5299 24.828 19.5299H16.542H16.536Z" fill="#0044CC"/>
<path d="M23.52 22.3561H19.2C18.924 22.3561 18.702 22.1341 18.702 21.8581C18.702 21.5821 18.924 21.3601 19.2 21.3601H23.52C23.796 21.3601 24.018 21.5821 24.018 21.8581C24.018 22.1341 23.796 22.3561 23.52 22.3561Z" fill="#0044CC"/>
<g opacity="0.2">
<path d="M33.99 26.01H20.028C19.4779 26.01 19.032 26.4559 19.032 27.006V36.978C19.032 37.5281 19.4779 37.974 20.028 37.974H33.99C34.5401 37.974 34.986 37.5281 34.986 36.978V27.006C34.986 26.4559 34.5401 26.01 33.99 26.01Z" fill="#0055FF"/>
</g>
<path d="M29.9999 56.424C29.9159 56.424 29.8259 56.4 29.7479 56.358L7.29595 43.392C7.13995 43.302 7.04395 43.14 7.04395 42.96V17.034C7.04395 16.854 7.13995 16.692 7.29595 16.602L29.7479 3.64196C29.9039 3.55196 30.0899 3.55196 30.2459 3.64196L52.6979 16.608C52.854 16.698 52.9499 16.86 52.9499 17.04V42.966C52.9499 43.146 52.854 43.308 52.6979 43.398L30.2459 56.364C30.1679 56.406 30.0839 56.43 29.9939 56.43L29.9999 56.424ZM8.04595 42.672L29.9999 55.35L51.9539 42.672V17.322L29.9999 4.64996L8.04595 17.322V42.672Z" fill="#0044CC"/>
<path fill-rule="evenodd" clip-rule="evenodd" d="M34.254 25.194L37.506 25.266L37.476 26.502C38.538 26.688 39.528 27.066 40.416 27.594L41.7 26.376L43.956 28.722L42.846 29.778C43.608 30.78 44.154 31.956 44.412 33.234L45.78 33.264L45.708 36.516L44.436 36.486C44.232 37.584 43.818 38.61 43.23 39.516L44.436 40.77L42.078 43.014L40.98 41.868C39.852 42.666 38.526 43.206 37.092 43.392L37.062 44.766L33.81 44.688L33.846 43.194C32.598 42.876 31.464 42.288 30.504 41.496L29.58 42.372L27.324 40.026L28.428 38.976C27.948 38.088 27.618 37.122 27.474 36.084L26.208 36.054L26.28 32.802L27.642 32.832C27.942 31.644 28.488 30.558 29.226 29.622L28.17 28.524L30.528 26.286L31.692 27.498C32.466 27.054 33.318 26.724 34.224 26.538L34.254 25.176V25.194Z" fill="white"/>
<path d="M37.506 25.2661L38.004 25.2781C38.01 25.0021 37.794 24.7741 37.518 24.7681L37.506 25.2661ZM34.254 25.1941L34.266 24.6961C33.99 24.6961 33.762 24.9061 33.756 25.1821L34.254 25.1941ZM37.476 26.5081L36.978 26.4961C36.978 26.7421 37.146 26.9581 37.392 27.0001L37.476 26.5081ZM40.416 27.6001L40.158 28.0261C40.35 28.1401 40.596 28.1161 40.758 27.9601L40.416 27.6001ZM41.7 26.3821L42.06 26.0341C41.868 25.8361 41.556 25.8301 41.358 26.0161L41.7 26.3761V26.3821ZM43.956 28.7281L44.298 29.0881C44.394 28.9981 44.448 28.8721 44.454 28.7341C44.454 28.6021 44.406 28.4761 44.316 28.3801L43.956 28.7281ZM42.846 29.7841L42.504 29.4241C42.318 29.5981 42.294 29.8861 42.45 30.0901L42.846 29.7901V29.7841ZM44.412 33.2401L43.926 33.3421C43.974 33.5641 44.172 33.7321 44.406 33.7381L44.418 33.2401H44.412ZM45.78 33.2701L46.278 33.2821C46.278 33.0001 46.068 32.7721 45.792 32.7721L45.78 33.2701ZM45.708 36.5221L45.696 37.0201C45.972 37.0201 46.2 36.7981 46.206 36.5341L45.708 36.5221ZM44.436 36.4921L44.448 35.9941C44.202 35.9821 43.992 36.1561 43.944 36.4021L44.436 36.4921ZM43.23 39.5221L42.81 39.2521C42.684 39.4441 42.708 39.7021 42.87 39.8701L43.23 39.5221ZM44.436 40.7761L44.778 41.1361C44.874 41.0461 44.928 40.9261 44.934 40.7881C44.934 40.6561 44.886 40.5301 44.796 40.4281L44.436 40.7761ZM42.078 43.0201L41.718 43.3621C41.91 43.5601 42.222 43.5721 42.42 43.3801L42.078 43.0201ZM40.98 41.8741L41.34 41.5261C41.166 41.3461 40.89 41.3281 40.692 41.4661L40.98 41.8741ZM37.092 43.3981L37.026 42.9001C36.78 42.9301 36.594 43.1401 36.594 43.3861L37.092 43.3981ZM37.062 44.7721L37.05 45.2701C37.326 45.2701 37.554 45.0481 37.56 44.7841L37.062 44.7721ZM33.81 44.6941L33.312 44.6821C33.312 44.8141 33.36 44.9401 33.45 45.0421C33.54 45.1321 33.666 45.1921 33.798 45.1921L33.81 44.6941ZM33.846 43.2001L34.344 43.2121C34.344 42.9841 34.194 42.7741 33.972 42.7261L33.846 43.2061V43.2001ZM30.504 41.5021L30.822 41.1121C30.63 40.9501 30.342 40.9621 30.162 41.1421L30.504 41.5021ZM29.58 42.3781L29.22 42.7261C29.412 42.9241 29.724 42.9241 29.922 42.7381L29.58 42.3781ZM27.324 40.0321L26.982 39.6721C26.886 39.7621 26.832 39.8941 26.826 40.0201C26.82 40.1461 26.874 40.2781 26.964 40.3801L27.324 40.0321ZM28.428 38.9821L28.77 39.3421C28.932 39.1921 28.974 38.9461 28.866 38.7421L28.428 38.9821ZM27.474 36.0901L27.966 36.0181C27.93 35.7781 27.726 35.5981 27.486 35.5921L27.474 36.0901ZM26.208 36.0601L25.71 36.0481C25.71 36.1801 25.758 36.3061 25.848 36.4081C25.938 36.4981 26.064 36.5581 26.196 36.5581L26.208 36.0601ZM26.28 32.8081L26.292 32.3101C26.016 32.3101 25.788 32.5201 25.782 32.7961L26.28 32.8081ZM27.642 32.8381L27.63 33.3361C27.864 33.3481 28.068 33.1861 28.122 32.9581L27.636 32.8381H27.642ZM29.226 29.6281L29.616 29.9401C29.772 29.7421 29.76 29.4661 29.586 29.2861L29.226 29.6341V29.6281ZM28.17 28.5301L27.828 28.1701C27.732 28.2601 27.678 28.3861 27.672 28.5181C27.672 28.6501 27.72 28.7821 27.81 28.8721L28.17 28.5241V28.5301ZM30.528 26.2921L30.888 25.9441C30.696 25.7461 30.384 25.7401 30.186 25.9261L30.528 26.2861V26.2921ZM31.692 27.5041L31.332 27.8521C31.488 28.0141 31.74 28.0501 31.938 27.9361L31.692 27.5041ZM34.224 26.5441L34.326 27.0301C34.554 26.9821 34.716 26.7841 34.722 26.5561L34.224 26.5441ZM37.518 24.7561L34.266 24.6841L34.242 25.6801L37.494 25.7521L37.518 24.7561ZM37.974 26.5021L38.004 25.2661L37.008 25.2421L36.978 26.4781L37.974 26.5021ZM40.668 27.1561C39.732 26.5921 38.682 26.1961 37.56 25.9981L37.386 26.9821C38.382 27.1561 39.318 27.5101 40.152 28.0141L40.662 27.1621L40.668 27.1561ZM41.352 25.9981L40.068 27.2221L40.752 27.9421L42.036 26.7181L41.346 25.9921L41.352 25.9981ZM44.31 28.3561L42.06 26.0101L41.34 26.7001L43.59 29.0461L44.31 28.3561ZM43.182 30.1141L44.292 29.0581L43.602 28.3381L42.492 29.3941L43.182 30.1201V30.1141ZM44.892 33.1081C44.616 31.7521 44.04 30.5101 43.236 29.4481L42.444 30.0541C43.164 30.9961 43.674 32.1061 43.914 33.3121L44.892 33.1141V33.1081ZM44.394 33.7081L45.762 33.7381L45.786 32.7421L44.418 32.7121L44.394 33.7081ZM45.276 33.2281L45.204 36.4681L46.2 36.4981L46.272 33.2461L45.276 33.2281ZM45.714 35.9881L44.442 35.9581L44.418 36.9541L45.69 36.9841L45.714 35.9881ZM43.65 39.7561C44.268 38.7961 44.706 37.7101 44.922 36.5461L43.944 36.3661C43.752 37.4041 43.362 38.3581 42.81 39.2161L43.65 39.7561ZM44.796 40.3921L43.59 39.1381L42.87 39.8341L44.076 41.0881L44.796 40.3921ZM42.42 43.3441L44.778 41.1001L44.088 40.3801L41.73 42.6121L42.42 43.3381V43.3441ZM40.62 42.1861L41.718 43.3201L42.438 42.6301L41.34 41.4841L40.62 42.1801V42.1861ZM37.152 43.8541C38.67 43.6621 40.074 43.0981 41.268 42.2461L40.692 41.4301C39.63 42.1861 38.382 42.6961 37.026 42.8641L37.152 43.8541ZM37.554 44.7541L37.584 43.3801L36.588 43.3621L36.558 44.7361L37.554 44.7541ZM33.792 45.1621L37.044 45.2401L37.068 44.2441L33.816 44.1661L33.792 45.1621ZM33.342 43.1581L33.306 44.6521L34.302 44.6701L34.338 43.1761L33.342 43.1581ZM30.18 41.8501C31.194 42.6901 32.4 43.3141 33.72 43.6441L33.966 42.6841C32.79 42.3841 31.722 41.8261 30.816 41.0761L30.18 41.8441V41.8501ZM29.916 42.7081L30.84 41.8321L30.15 41.1121L29.226 41.9881L29.916 42.7081ZM26.958 40.3561L29.208 42.7021L29.928 42.0061L27.678 39.6601L26.958 40.3561ZM28.074 38.5981L26.97 39.6481L27.66 40.3681L28.764 39.3181L28.074 38.5981ZM26.97 36.1321C27.12 37.2301 27.474 38.2561 27.984 39.1921L28.86 38.7121C28.404 37.8841 28.098 36.9661 27.96 35.9881L26.97 36.1261V36.1321ZM27.474 35.5621L26.208 35.5321L26.184 36.5281L27.45 36.5581L27.474 35.5621ZM26.694 36.0421L26.766 32.7901L25.77 32.7721L25.698 36.0241L26.694 36.0421ZM26.256 33.2821L27.618 33.3121L27.642 32.3161L26.28 32.2861L26.256 33.2821ZM28.824 29.2981C28.044 30.2821 27.462 31.4401 27.15 32.6941L28.116 32.9341C28.398 31.8181 28.914 30.7921 29.604 29.9161L28.824 29.2981ZM27.804 28.8601L28.86 29.9581L29.58 29.2681L28.524 28.1701L27.804 28.8601ZM30.18 25.9141L27.822 28.1521L28.506 28.8721L30.864 26.6341L30.174 25.9141H30.18ZM32.046 27.1441L30.882 25.9321L30.162 26.6221L31.326 27.8341L32.046 27.1441ZM34.116 26.0401C33.162 26.2381 32.262 26.5861 31.44 27.0541L31.938 27.9181C32.67 27.4981 33.474 27.1921 34.32 27.0121L34.116 26.0341V26.0401ZM33.75 25.1581L33.72 26.5201L34.716 26.5441L34.746 25.1821L33.75 25.1581Z" fill="#0044CC"/>
<g opacity="0.8">
<path d="M35.118 33.618L34.08 36.978H32.976L34.542 32.718H35.238L35.118 33.618ZM35.976 36.978L34.938 33.618L34.806 32.718H35.514L37.086 36.978H35.982H35.976ZM35.934 35.394V36.18H33.75V35.394H35.934ZM38.484 32.724V36.984H37.458V32.724H38.484Z" fill="#FF6B00"/>
</g>
</g>
<defs>
<clipPath id="clip0_239_2335">
<rect width="60" height="60" fill="white"/>
</clipPath>
</defs>
</svg>
