<svg width="32" height="32" viewBox="0 0 32 32" fill="none" xmlns="http://www.w3.org/2000/svg">
<circle cx="16" cy="16" r="16" fill="white"/>
<circle cx="16" cy="16" r="15.5" stroke="#222222" stroke-opacity="0.1"/>
<path fill-rule="evenodd" clip-rule="evenodd" d="M24.6476 16.5028C24.6497 15.9074 24.5962 15.313 24.4876 14.7275H16.3048V18.0875H20.9829C20.8859 18.6183 20.6827 19.1241 20.3855 19.5745C20.0883 20.0248 19.7032 20.4106 19.2534 20.7085V22.8875H22.0572C22.9129 22.0647 23.5858 21.071 24.0321 19.9709C24.4784 18.8709 24.6882 17.6892 24.6476 16.5028Z" fill="#4285F4"/>
<path fill-rule="evenodd" clip-rule="evenodd" d="M16.3048 24.9904C18.4201 25.0479 20.4776 24.2958 22.0572 22.8875L19.2533 20.7085C18.3747 21.2719 17.3483 21.561 16.3048 21.539C15.2222 21.5239 14.1715 21.1705 13.2998 20.5283C12.4281 19.8862 11.7792 18.9874 11.4438 17.958H8.54858V20.2056C9.26991 21.6445 10.3775 22.8542 11.7473 23.6992C13.1172 24.5443 14.6952 24.9914 16.3048 24.9904Z" fill="#34A853"/>
<path fill-rule="evenodd" clip-rule="evenodd" d="M11.4438 17.9581C11.0882 16.8845 11.0882 15.7249 11.4438 14.6514V12.4038H8.54859C7.93725 13.6133 7.61874 14.9495 7.61874 16.3048C7.61874 17.66 7.93725 18.9962 8.54859 20.2057L11.4438 17.9581Z" fill="#FBBC05"/>
<path fill-rule="evenodd" clip-rule="evenodd" d="M16.3048 11.0704C17.5406 11.0495 18.7345 11.5178 19.6267 12.3732L22.1181 9.88179C20.5499 8.39514 18.4656 7.57563 16.3048 7.59608C14.6952 7.59512 13.1172 8.04218 11.7473 8.88723C10.3775 9.73229 9.26991 10.942 8.54858 12.3808L11.4438 14.6284C11.7792 13.599 12.4281 12.7003 13.2998 12.0582C14.1715 11.416 15.2222 11.0626 16.3048 11.0475V11.0704Z" fill="#EA4335"/>
</svg>
