<svg width="60" height="60" viewBox="0 0 60 60" fill="none" xmlns="http://www.w3.org/2000/svg">
<g clip-path="url(#clip0_239_3126)">
<path d="M60 0H0V60H60V0Z" fill="white"/>
<path d="M52.938 53.436H7.06197C6.78597 53.436 6.56396 53.214 6.56396 52.938V7.06197C6.56396 6.78597 6.78597 6.56396 7.06197 6.56396H52.932C53.208 6.56396 53.43 6.78597 53.43 7.06197V52.932C53.43 53.208 53.208 53.43 52.932 53.43L52.938 53.436ZM7.56596 52.44H52.44V7.55997H7.55997V52.434L7.56596 52.44Z" fill="#0044CC"/>
<path d="M30 46.95C29.928 46.95 29.85 46.932 29.778 46.896L24.096 44.094C19.308 41.73 16.032 36.972 15.54 31.668V21C15.54 20.814 15.648 20.64 15.816 20.556L29.778 13.596C29.916 13.524 30.084 13.524 30.222 13.596L44.184 20.556C44.352 20.64 44.46 20.814 44.46 21V31.62C43.44 37.152 40.044 41.748 35.136 44.316L30.228 46.89C30.156 46.926 30.078 46.95 29.994 46.95H30ZM16.536 21.312V31.626C16.992 36.54 20.058 40.998 24.534 43.206L29.988 45.894L34.668 43.44C39.3 41.01 42.51 36.672 43.464 31.536V21.318L29.994 14.604L16.53 21.318L16.536 21.312Z" fill="#0044CC"/>
<g opacity="0.1">
<path fill-rule="evenodd" clip-rule="evenodd" d="M39.972 30.498C39.972 30.816 39.954 31.134 39.912 31.446C39.6299 30.06 38.274 29.004 36.654 29.004C35.034 29.004 33.63 30.078 33.372 31.5H33.282C33.012 30.084 31.644 29.004 30 29.004C28.356 29.004 26.988 30.078 26.718 31.5H26.628C26.37 30.084 24.99 29.004 23.346 29.004C21.702 29.004 20.364 30.06 20.088 31.446C20.046 31.134 20.028 30.816 20.028 30.498C20.028 25.542 24.498 21.522 30 21.522C35.502 21.522 39.972 25.542 39.972 30.498Z" fill="#0055FF"/>
</g>
<path d="M39.912 31.4462L39.426 31.5482C39.474 31.7882 39.696 31.9562 39.942 31.9442C40.182 31.9322 40.38 31.7522 40.41 31.5062L39.912 31.4462ZM33.372 31.4942V31.9922C33.612 31.9922 33.822 31.8242 33.858 31.5842L33.372 31.4942ZM33.282 31.4942L32.784 31.5842C32.832 31.8242 33.042 31.9922 33.282 31.9922V31.4942ZM26.718 31.4942V31.9922C26.958 31.9922 27.168 31.8242 27.204 31.5842L26.718 31.4942ZM26.628 31.4942L26.142 31.5842C26.184 31.8242 26.394 31.9922 26.628 31.9922V31.4942ZM20.088 31.4462L19.59 31.5062C19.62 31.7462 19.818 31.9322 20.058 31.9442C20.31 31.9562 20.526 31.7822 20.568 31.5482L20.088 31.4462ZM40.41 31.5062C40.452 31.1762 40.47 30.8402 40.47 30.4982H39.474C39.474 30.7982 39.456 31.0982 39.426 31.3982L40.416 31.5062H40.41ZM36.648 29.5022C38.064 29.5022 39.192 30.4202 39.42 31.5482L40.398 31.3502C40.068 29.6942 38.484 28.5062 36.648 28.5062V29.5022ZM33.858 31.5842C34.08 30.4382 35.202 29.5022 36.648 29.5022V28.5062C34.794 28.5062 33.186 29.7242 32.88 31.4102L33.858 31.5902V31.5842ZM33.282 31.9922H33.372V30.9962H33.282V31.9922ZM30 29.4962C31.434 29.4962 32.574 30.4322 32.784 31.5782L33.774 31.3982C33.456 29.7122 31.86 28.4942 30.006 28.4942V29.4902L30 29.4962ZM27.21 31.5782C27.432 30.4322 28.554 29.4962 30 29.4962V28.5002C28.146 28.5002 26.538 29.7182 26.232 31.4042L27.21 31.5842V31.5782ZM26.634 31.9862H26.724V30.9902H26.634V31.9862ZM23.352 29.4902C24.798 29.4902 25.926 30.4262 26.142 31.5722L27.12 31.3922C26.808 29.7062 25.206 28.4882 23.352 28.4882V29.4842V29.4902ZM20.568 31.5362C20.808 30.4082 21.936 29.4902 23.352 29.4902V28.4942C21.528 28.4942 19.944 29.6822 19.602 31.3382L20.568 31.5362ZM19.53 30.4862C19.53 30.8282 19.548 31.1642 19.59 31.4942L20.58 31.3742C20.55 31.0862 20.532 30.7862 20.532 30.4862H19.536H19.53ZM30 21.0122C24.264 21.0122 19.53 25.2122 19.53 30.4862H20.526C20.526 25.8482 24.714 22.0082 30 22.0082V21.0122ZM40.47 30.4862C40.47 25.2122 35.736 21.0122 30 21.0122V22.0082C35.286 22.0082 39.474 25.8482 39.474 30.4862H40.47Z" fill="#0044CC"/>
<path d="M30 22.0198C29.724 22.0198 29.502 21.7978 29.502 21.5218V20.0278C29.502 19.7518 29.724 19.5298 30 19.5298C30.276 19.5298 30.498 19.7518 30.498 20.0278V21.5218C30.498 21.7978 30.276 22.0198 30 22.0198Z" fill="#0044CC"/>
<g opacity="0.8">
<path d="M30.906 40.4698C30.63 40.4698 30.408 40.2478 30.408 39.9718V35.9218C30.408 35.6458 30.63 35.4238 30.906 35.4238C31.182 35.4238 31.404 35.6458 31.404 35.9218V39.9718C31.404 40.2478 31.182 40.4698 30.906 40.4698Z" fill="#FF6B00"/>
</g>
<g opacity="0.8">
<path d="M30.906 36.4198H29.22C28.944 36.4198 28.722 36.1978 28.722 35.9218C28.722 35.6458 28.944 35.4238 29.22 35.4238H30.906C31.182 35.4238 31.404 35.6458 31.404 35.9218C31.404 36.1978 31.182 36.4198 30.906 36.4198Z" fill="#FF6B00"/>
</g>
<g opacity="0.8">
<path d="M32.592 40.4701H29.22C28.944 40.4701 28.722 40.2481 28.722 39.9721C28.722 39.6961 28.944 39.4741 29.22 39.4741H32.592C32.868 39.4741 33.09 39.6961 33.09 39.9721C33.09 40.2481 32.868 40.4701 32.592 40.4701Z" fill="#FF6B00"/>
</g>
<path d="M30.132 34.242C30.7517 34.242 31.254 33.7397 31.254 33.12C31.254 32.5004 30.7517 31.998 30.132 31.998C29.5123 31.998 29.01 32.5004 29.01 33.12C29.01 33.7397 29.5123 34.242 30.132 34.242Z" fill="white"/>
<g opacity="0.8">
<path d="M30.132 34.74C29.238 34.74 28.512 34.014 28.512 33.12C28.512 32.226 29.238 31.5 30.132 31.5C31.026 31.5 31.752 32.226 31.752 33.12C31.752 34.014 31.026 34.74 30.132 34.74ZM30.132 32.496C29.79 32.496 29.508 32.778 29.508 33.12C29.508 33.462 29.79 33.744 30.132 33.744C30.474 33.744 30.756 33.462 30.756 33.12C30.756 32.778 30.474 32.496 30.132 32.496Z" fill="#FF6B00"/>
</g>
</g>
<defs>
<clipPath id="clip0_239_3126">
<rect width="60" height="60" fill="white"/>
</clipPath>
</defs>
</svg>
