<svg width="60" height="60" viewBox="0 0 60 60" fill="none" xmlns="http://www.w3.org/2000/svg">
<g clip-path="url(#clip0_239_2777)">
<path d="M60 0H0V60H60V0Z" fill="white"/>
<path d="M18.036 25.9022V21.6242L21.624 17.8322L22.236 17.2862C22.416 17.1242 22.656 17.0342 22.896 17.0342H37.974V38.1662C37.974 40.3622 36.186 42.1562 33.984 42.1562H18.03V25.9022H18.036Z" fill="white"/>
<g opacity="0.2">
<path d="M14.046 27.7858V23.0818L17.994 18.9118L18.696 18.2818C18.876 18.1198 19.116 18.0298 19.356 18.0298H35.982V41.6638C35.982 43.8658 34.194 45.6538 31.992 45.6538H14.04V27.7858H14.046Z" fill="#0055FF"/>
</g>
<path d="M18.036 25.9022V21.6242L21.624 17.8322L22.236 17.2862C22.416 17.1242 22.656 17.0342 22.896 17.0342H37.974V38.1662C37.974 40.3622 36.186 42.1562 33.984 42.1562H18.03V25.9022H18.036Z" fill="white"/>
<path d="M52.938 53.436H7.06197C6.78597 53.436 6.56396 53.214 6.56396 52.938V7.06197C6.56396 6.78597 6.78597 6.56396 7.06197 6.56396H52.932C53.208 6.56396 53.43 6.78597 53.43 7.06197V52.932C53.43 53.208 53.208 53.43 52.932 53.43L52.938 53.436ZM7.56596 52.44H52.44V7.55997H7.55997V52.434L7.56596 52.44Z" fill="#0044CC"/>
<g opacity="0.2">
<path d="M27.006 27.468L35.982 23.022L44.958 27.468V34.272C44.328 37.644 42.216 40.542 39.21 42.198L35.982 43.962L32.262 42.036C29.298 40.512 27.318 37.578 27.012 34.266V27.462L27.006 27.468Z" fill="#0055FF"/>
</g>
<path d="M35.982 44.46C35.904 44.46 35.826 44.442 35.754 44.406L32.034 42.48C28.908 40.866 26.844 37.818 26.514 34.314V27.468C26.514 27.276 26.622 27.108 26.79 27.018L35.766 22.572C35.904 22.506 36.066 22.506 36.21 22.572L45.186 27.018C45.354 27.102 45.462 27.276 45.462 27.468V34.272C44.796 37.884 42.606 40.902 39.456 42.636L36.228 44.4C36.156 44.442 36.072 44.46 35.988 44.46H35.982ZM27.504 27.774V34.266C27.798 37.38 29.664 40.134 32.484 41.592L35.97 43.392L38.964 41.754C41.856 40.164 43.86 37.398 44.46 34.17V27.768L35.976 23.568L27.498 27.768L27.504 27.774Z" fill="#0044CC"/>
<path d="M23.76 17.0338V16.5358H23.262V17.0338H23.76ZM18.03 21.6238L17.67 21.2818L17.532 21.4198V21.6178H18.03V21.6238ZM37.476 21.5818C37.476 21.8518 37.698 22.0798 37.974 22.0798C38.25 22.0798 38.472 21.8518 38.472 21.5818H37.476ZM37.974 17.0338H38.472C38.472 16.7518 38.25 16.5358 37.974 16.5358V17.0338ZM23.76 21.8878V22.3858C24.036 22.3858 24.258 22.1638 24.258 21.8878H23.76ZM20.424 21.3898C20.148 21.3898 19.926 21.6178 19.926 21.8878C19.926 22.1578 20.148 22.3858 20.424 22.3858V21.3898ZM21.984 18.1678C22.176 17.9698 22.164 17.6578 21.966 17.4718C21.768 17.2798 21.45 17.2918 21.258 17.4898L21.984 18.1678ZM18.03 42.1498H17.532C17.532 42.4198 17.754 42.6478 18.03 42.6478V42.1498ZM28.5 42.6478C28.776 42.6478 28.998 42.4198 28.998 42.1498C28.998 41.8798 28.776 41.6518 28.5 41.6518V42.6478ZM17.532 21.6178V25.8958H18.528V21.6178H17.532ZM38.472 21.5758V17.0278H37.476V21.5758H38.472ZM37.974 16.5298H23.76V17.5258H37.974V16.5298ZM23.256 17.0278V21.8818H24.252V17.0278H23.256ZM23.754 21.3838H20.418V22.3798H23.754V21.3838ZM18.39 21.9538L21.978 18.1618L21.252 17.4838L17.664 21.2758L18.39 21.9538ZM18.528 42.1498V25.8958H17.532V42.1498H18.528ZM18.03 42.6478H28.5V41.6518H18.03V42.6478Z" fill="#0044CC"/>
<path d="M35.982 38.9758C39.0108 38.9758 41.466 36.5205 41.466 33.4918C41.466 30.4631 39.0108 28.0078 35.982 28.0078C32.9533 28.0078 30.498 30.4631 30.498 33.4918C30.498 36.5205 32.9533 38.9758 35.982 38.9758Z" fill="white"/>
<path d="M35.982 39.4738C32.682 39.4738 30 36.7918 30 33.4918C30 30.1918 32.682 27.5098 35.982 27.5098C39.282 27.5098 41.964 30.1918 41.964 33.4918C41.964 36.7918 39.282 39.4738 35.982 39.4738ZM35.982 28.5058C33.234 28.5058 30.996 30.7438 30.996 33.4918C30.996 36.2398 33.234 38.4778 35.982 38.4778C38.73 38.4778 40.968 36.2398 40.968 33.4918C40.968 30.7438 38.73 28.5058 35.982 28.5058Z" fill="#0044CC"/>
<path d="M24.516 31.9922C26.85 32.5622 28.164 32.5922 30.498 31.9922V35.3942C28.164 36.1742 26.85 36.1802 24.516 35.3942V31.9922Z" fill="white"/>
<path d="M27.4979 36.4799C26.5319 36.4799 25.5719 36.2759 24.3539 35.8619C24.1499 35.7959 24.0179 35.6039 24.0179 35.3879V31.9859C24.0179 31.8359 24.0899 31.6859 24.2099 31.5959C24.3299 31.4999 24.4859 31.4699 24.6359 31.5059C26.9459 32.0699 28.1819 32.0699 30.3779 31.5059C30.5279 31.4699 30.6839 31.5059 30.8099 31.5959C30.9299 31.6919 31.0019 31.8359 31.0019 31.9919V35.3939C31.0019 35.6099 30.8639 35.8019 30.6599 35.8679C29.4299 36.2759 28.4639 36.4799 27.4979 36.4799ZM25.0139 35.0279C26.9039 35.6279 28.0859 35.6279 29.9999 35.0279V32.6219C28.1939 33.0299 26.9099 33.0239 25.0139 32.6219V35.0339V35.0279Z" fill="#0044CC"/>
<path d="M47.454 31.9922C45.12 32.5622 43.806 32.5922 41.472 31.9922V35.3942C43.806 36.1742 45.12 36.1802 47.454 35.3942V31.9922Z" fill="white"/>
<path d="M44.472 36.4799C43.506 36.4799 42.54 36.2759 41.31 35.8679C41.106 35.8019 40.968 35.6099 40.968 35.3939V31.9919C40.968 31.8359 41.04 31.6919 41.16 31.5959C41.28 31.4999 41.442 31.4699 41.592 31.5059C43.788 32.0699 45.018 32.0699 47.334 31.5059C47.484 31.4699 47.64 31.5059 47.76 31.5959C47.88 31.6919 47.952 31.8359 47.952 31.9859V35.3879C47.952 35.6039 47.814 35.7899 47.616 35.8619C46.398 36.2699 45.438 36.4799 44.472 36.4799ZM41.97 35.0279C43.884 35.6279 45.066 35.6279 46.956 35.0279V32.6159C45.06 33.0239 43.776 33.0299 41.97 32.6159V35.0219V35.0279Z" fill="#0044CC"/>
<g opacity="0.8">
<path d="M35.058 32.0159V34.2479H36.174C36.33 34.2479 36.474 34.2179 36.606 34.1699C36.738 34.1099 36.858 34.0319 36.96 33.9179C37.062 33.8159 37.14 33.6959 37.2 33.5699C37.26 33.4319 37.29 33.2819 37.29 33.1319C37.29 32.9819 37.26 32.8319 37.2 32.7059C37.14 32.5679 37.062 32.4479 36.96 32.3459C36.858 32.2439 36.738 32.1659 36.606 32.1059C36.474 32.0459 36.324 32.0159 36.174 32.0159H35.058ZM35.058 36.4859H33.942V30.8999H36.18C36.384 30.8999 36.582 30.9299 36.774 30.9779C36.966 31.0259 37.14 31.1099 37.302 31.2059C37.47 31.2959 37.62 31.4159 37.752 31.5539C37.89 31.6859 38.004 31.8419 38.1 32.0039C38.196 32.1719 38.274 32.3519 38.328 32.5439C38.382 32.7359 38.412 32.9219 38.412 33.1319C38.412 33.4439 38.352 33.7319 38.238 34.0019C38.124 34.2719 37.962 34.5119 37.758 34.7099C37.554 34.9199 37.32 35.0759 37.044 35.1899C36.774 35.3099 36.486 35.3699 36.18 35.3699H35.064V36.4859H35.058Z" fill="#FF6B00"/>
</g>
</g>
<defs>
<clipPath id="clip0_239_2777">
<rect width="60" height="60" fill="white"/>
</clipPath>
</defs>
</svg>
