<svg width="100" height="100" viewBox="0 0 100 100" fill="none" xmlns="http://www.w3.org/2000/svg">
<g clip-path="url(#clip0_239_1882)">
<path d="M100 0H0V100H100V0Z" fill="white"/>
<g opacity="0.35">
<path d="M41.69 58.31C47.1962 58.31 51.66 51.6122 51.66 43.35C51.66 35.0878 47.1962 28.39 41.69 28.39C36.1837 28.39 31.72 35.0878 31.72 43.35C31.72 51.6122 36.1837 58.31 41.69 58.31Z" fill="#FFBB88"/>
</g>
<path d="M50.83 60.75C45.16 60.75 39.91 57.53 37.31 52.51C34.6 52.27 32.54 50.16 32.54 47.6C32.54 45.61 33.75 43.87 35.62 43.09V41.44C35.62 33.06 42.44 26.24 50.82 26.24C59.2 26.24 66.02 33.06 66.02 41.44V43.09C67.89 43.87 69.1 45.62 69.1 47.6C69.1 50.19 67 52.32 64.33 52.52C61.74 57.54 56.49 60.75 50.82 60.75H50.83ZM50.83 27.9C43.36 27.9 37.29 33.97 37.29 41.44V44.3L36.69 44.47C35.21 44.9 34.21 46.15 34.21 47.6C34.21 49.41 35.79 50.88 37.74 50.88H38.27L38.6 51.35C40.83 56.05 45.64 59.09 50.84 59.09C56.04 59.09 60.85 56.05 63.08 51.35L63.31 50.88H63.84C65.89 50.88 67.47 49.41 67.47 47.61C67.47 46.17 66.47 44.91 64.99 44.48L64.39 44.31V41.45C64.39 33.98 58.32 27.91 50.85 27.91L50.83 27.9Z" fill="#0044CC"/>
<g opacity="0.15">
<path fill-rule="evenodd" clip-rule="evenodd" d="M84.4 70.68C77.4 76.73 68.28 80.4 58.31 80.4C36.28 80.4 18.42 62.54 18.42 40.51C18.42 33.14 20.42 26.23 23.9 20.31C15.45 27.62 10.1 38.43 10.1 50.48C10.1 72.51 27.96 90.37 49.99 90.37C64.65 90.37 77.46 82.46 84.39 70.68H84.4Z" fill="#0055FF"/>
</g>
<path d="M23.41 79.92C23.41 79.92 23.34 79.92 23.3 79.92C22.84 79.86 22.52 79.44 22.58 78.99L23.41 72.59C23.97 69.26 25.8 66.41 28.59 64.55C31.37 62.69 34.7 62.07 37.97 62.81L46.69 64.8C48.98 65.32 51.39 65.32 53.68 64.8L62.53 62.8C65.83 62.05 69.2 62.66 72.04 64.52C74.87 66.37 76.78 69.22 77.41 72.54L78.25 77.76C78.32 78.21 78.01 78.64 77.56 78.71C77.1 78.79 76.68 78.47 76.61 78.02L75.78 72.82C75.23 69.97 73.58 67.5 71.13 65.9C68.68 64.3 65.76 63.77 62.9 64.41L54.05 66.41C51.52 66.98 48.85 66.98 46.32 66.41L37.6 64.42C34.78 63.78 31.92 64.31 29.52 65.92C27.12 67.53 25.54 69.98 25.06 72.83L24.23 79.2C24.18 79.62 23.82 79.92 23.41 79.92Z" fill="#0044CC"/>
<path d="M50 90.72C27.55 90.72 9.28003 72.45 9.28003 50C9.28003 27.55 27.55 9.28 50 9.28C72.45 9.28 90.72 27.55 90.72 50C90.72 72.45 72.45 90.72 50 90.72ZM50 10.94C28.46 10.94 10.94 28.46 10.94 50C10.94 71.54 28.46 89.06 50 89.06C71.54 89.06 89.06 71.54 89.06 50C89.06 28.46 71.54 10.94 50 10.94Z" fill="#0044CC"/>
</g>
<defs>
<clipPath id="clip0_239_1882">
<rect width="100" height="100" fill="white"/>
</clipPath>
</defs>
</svg>
