<svg width="60" height="60" viewBox="0 0 60 60" fill="none" xmlns="http://www.w3.org/2000/svg">
<g clip-path="url(#clip0_239_2611)">
<path d="M60 0H0V60H60V0Z" fill="white"/>
<path d="M52.938 53.436H7.06197C6.78597 53.436 6.56396 53.214 6.56396 52.938V7.06197C6.56396 6.78597 6.78597 6.56396 7.06197 6.56396H52.932C53.208 6.56396 53.43 6.78597 53.43 7.06197V52.932C53.43 53.208 53.208 53.43 52.932 53.43L52.938 53.436ZM7.56596 52.44H52.44V7.55997H7.55997V52.434L7.56596 52.44Z" fill="#0044CC"/>
<g opacity="0.2">
<path fill-rule="evenodd" clip-rule="evenodd" d="M24.894 20.13C24.894 17.316 27.174 15.042 29.982 15.042C32.79 15.042 35.07 17.316 35.07 20.13V20.898C35.7 21.078 36.162 21.636 36.162 22.284C36.162 23.082 35.472 23.73 34.62 23.73H34.578C33.762 25.446 32.01 26.622 29.988 26.622C27.966 26.622 26.214 25.446 25.398 23.73H25.356C24.504 23.73 23.814 23.082 23.814 22.284C23.814 21.624 24.27 21.078 24.906 20.898V20.13H24.894Z" fill="#0055FF"/>
</g>
<path d="M35.064 20.8979H34.566V21.2759L34.926 21.3779L35.064 20.8979ZM34.572 23.7299L34.584 23.2319L34.26 23.2199L34.122 23.5079L34.572 23.7299ZM25.386 23.7299L25.836 23.5079L25.698 23.2199L25.374 23.2319L25.386 23.7299ZM24.894 20.8979L25.032 21.3779L25.392 21.2759V20.8979H24.894ZM29.982 14.5439C26.898 14.5439 24.396 17.0459 24.396 20.1299H25.392C25.392 17.5979 27.444 15.5399 29.982 15.5399V14.5439ZM35.568 20.1299C35.568 17.0459 33.066 14.5439 29.982 14.5439V15.5399C32.514 15.5399 34.572 17.5919 34.572 20.1299H35.568ZM35.568 20.8979V20.1299H34.572V20.8979H35.568ZM36.66 22.2839C36.66 21.3839 36.03 20.6579 35.208 20.4179L34.932 21.3779C35.376 21.5099 35.658 21.8759 35.658 22.2839H36.654H36.66ZM34.62 24.2279C35.718 24.2279 36.66 23.3879 36.66 22.2839H35.664C35.664 22.7699 35.226 23.2319 34.62 23.2319V24.2279ZM34.566 24.2279H34.62V23.2319H34.59L34.566 24.2279ZM29.988 27.1199C32.214 27.1199 34.134 25.8239 35.028 23.9399L34.128 23.5139C33.39 25.0619 31.812 26.1239 29.988 26.1239V27.1199ZM24.948 23.9399C25.848 25.8239 27.768 27.1199 29.988 27.1199V26.1239C28.164 26.1239 26.586 25.0559 25.848 23.5139L24.948 23.9399ZM25.386 23.2319H25.356V24.2279H25.41L25.386 23.2319ZM25.356 23.2319C24.75 23.2319 24.312 22.7759 24.312 22.2839H23.316C23.316 23.3879 24.264 24.2279 25.362 24.2279V23.2319H25.356ZM24.312 22.2839C24.312 21.8759 24.6 21.5039 25.044 21.3779L24.768 20.4179C23.946 20.6579 23.316 21.3839 23.316 22.2839H24.312ZM24.402 20.1299V20.8979H25.398V20.1299H24.402Z" fill="#0044CC"/>
<g opacity="0.2">
<path d="M17.4301 34.7699L17.4001 34.9619L17.0341 45.4619H42.9181L42.5521 34.9739L42.5341 34.8659C41.7541 30.1079 36.9481 27.1499 32.3521 28.5959C30.8041 29.0759 29.1481 29.0759 27.6061 28.5839C23.0401 27.1499 18.2461 30.0599 17.4301 34.7759V34.7699Z" fill="#0055FF"/>
</g>
<path d="M42.924 45.954H17.034C16.896 45.954 16.77 45.9 16.674 45.804C16.578 45.708 16.53 45.576 16.536 45.438L16.938 34.686C17.352 32.298 18.774 30.204 20.844 28.944C22.92 27.678 25.44 27.372 27.756 28.104C29.208 28.56 30.744 28.566 32.208 28.11C34.536 27.378 37.062 27.69 39.138 28.968C41.22 30.246 42.636 32.364 43.032 34.776L43.05 34.884L43.422 45.438C43.422 45.576 43.374 45.702 43.284 45.804C43.194 45.906 43.062 45.954 42.924 45.954ZM17.556 44.958H42.408L42.048 34.938C41.7 32.814 40.446 30.948 38.616 29.814C36.786 28.686 34.554 28.41 32.508 29.058C30.852 29.574 29.106 29.568 27.462 29.046C25.422 28.404 23.196 28.674 21.372 29.79C19.548 30.9 18.294 32.742 17.928 34.848L17.898 35.034L17.556 44.958Z" fill="#0044CC"/>
<path fill-rule="evenodd" clip-rule="evenodd" d="M26.418 34.5361C26.418 32.5801 28.002 30.9961 29.958 30.9961C31.914 30.9961 33.498 32.5801 33.498 34.5361V35.0641C33.936 35.1961 34.254 35.5741 34.254 36.0301C34.254 36.5881 33.774 37.0381 33.18 37.0381H33.15C32.58 38.2261 31.362 39.0541 29.958 39.0541C28.554 39.0541 27.336 38.2261 26.766 37.0381H26.736C26.142 37.0381 25.662 36.5881 25.662 36.0301C25.662 35.5741 25.98 35.1901 26.418 35.0641V34.5361Z" fill="white"/>
<g opacity="0.8">
<path d="M33.4919 35.064H32.9939V35.442L33.3539 35.544L33.4919 35.064ZM33.1499 37.038L33.1619 36.54L32.8379 36.528L32.6999 36.816L33.1499 37.038ZM26.7599 37.038L27.2099 36.816L27.0719 36.528L26.7479 36.54L26.7599 37.038ZM26.4179 35.064L26.5559 35.544L26.9159 35.442V35.064H26.4179ZM29.9579 30.498C27.7319 30.498 25.9199 32.304 25.9199 34.536H26.9159C26.9159 32.85 28.2779 31.494 29.9519 31.494V30.498H29.9579ZM33.9959 34.536C33.9959 32.304 32.1899 30.498 29.9579 30.498V31.494C31.6379 31.494 32.9999 32.85 32.9999 34.536H33.9959ZM33.9959 35.064V34.536H32.9999V35.064H33.9959ZM34.7519 36.03C34.7519 35.334 34.2599 34.764 33.6359 34.584L33.3599 35.544C33.6119 35.622 33.7559 35.826 33.7559 36.03H34.7519ZM33.1799 37.536C34.0199 37.536 34.7519 36.888 34.7519 36.03H33.7559C33.7559 36.282 33.5279 36.54 33.1799 36.54V37.536ZM33.1379 37.536H33.1799V36.54H33.1619L33.1379 37.536ZM29.9579 39.552C31.5659 39.552 32.9519 38.604 33.5999 37.248L32.6999 36.822C32.2079 37.848 31.1639 38.556 29.9579 38.556V39.552ZM26.3159 37.248C26.9639 38.604 28.3499 39.552 29.9579 39.552V38.556C28.7519 38.556 27.7019 37.848 27.2159 36.822L26.3159 37.248ZM26.7539 36.54H26.7359V37.536H26.7779L26.7539 36.54ZM26.7359 36.54C26.3879 36.54 26.1599 36.282 26.1599 36.03H25.1639C25.1639 36.888 25.8959 37.536 26.7359 37.536V36.54ZM26.1599 36.03C26.1599 35.82 26.3099 35.622 26.5559 35.544L26.2799 34.584C25.6499 34.764 25.1639 35.334 25.1639 36.03H26.1599ZM25.9199 34.536V35.064H26.9159V34.536H25.9199Z" fill="#FF6B00"/>
</g>
<path d="M22.5959 42.7861L22.5479 43.4221L22.2419 45.9541H38.1959L37.8899 43.4281L37.8779 43.2361C37.6859 40.1161 34.5419 38.0521 31.5959 39.1201L31.4399 39.1801C30.4559 39.5401 29.3819 39.5221 28.4099 39.1381C25.7399 38.0581 22.7999 39.9061 22.5959 42.7801V42.7861Z" fill="white"/>
<path d="M38.202 46.452H22.248C22.104 46.452 21.972 46.392 21.876 46.284C21.78 46.176 21.738 46.032 21.756 45.894L22.104 42.75C22.212 41.22 23.022 39.87 24.324 39.06C25.62 38.25 27.18 38.112 28.602 38.682C29.46 39.018 30.414 39.03 31.272 38.718L31.428 38.658C32.988 38.094 34.668 38.292 36.054 39.198C37.434 40.104 38.286 41.568 38.382 43.212L38.394 43.398L38.7 45.894C38.718 46.038 38.676 46.176 38.58 46.284C38.484 46.392 38.352 46.452 38.208 46.452H38.202ZM22.806 45.456H37.638L37.386 43.272C37.302 41.94 36.618 40.758 35.502 40.026C34.386 39.294 33.024 39.132 31.77 39.588L31.614 39.648C30.522 40.05 29.322 40.032 28.23 39.606C27.108 39.156 25.878 39.258 24.852 39.9C23.826 40.542 23.184 41.604 23.1 42.816L23.052 43.452L22.812 45.45L22.806 45.456Z" fill="#0044CC"/>
</g>
<defs>
<clipPath id="clip0_239_2611">
<rect width="60" height="60" fill="white"/>
</clipPath>
</defs>
</svg>
