<svg width="60" height="60" viewBox="0 0 60 60" fill="none" xmlns="http://www.w3.org/2000/svg">
<g clip-path="url(#clip0_239_3341)">
<path d="M60 0H0V60H60V0Z" fill="white"/>
<g opacity="0.2">
<path d="M14.046 27.7858V23.0818L17.994 18.9118L18.696 18.2818C18.876 18.1198 19.116 18.0298 19.356 18.0298H35.982V41.6638C35.982 43.8658 34.194 45.6538 31.992 45.6538H14.04V27.7858H14.046Z" fill="#0055FF"/>
</g>
<path d="M18.036 25.9022V21.6242L21.624 17.8322L22.236 17.2862C22.416 17.1242 22.656 17.0342 22.896 17.0342H37.974V38.1662C37.974 40.3622 36.186 42.1562 33.984 42.1562H18.03V25.9022H18.036Z" fill="white"/>
<path d="M52.938 53.436H7.06197C6.78597 53.436 6.56396 53.214 6.56396 52.938V7.06197C6.56396 6.78597 6.78597 6.56396 7.06197 6.56396H52.932C53.208 6.56396 53.43 6.78597 53.43 7.06197V52.932C53.43 53.208 53.208 53.43 52.932 53.43L52.938 53.436ZM7.56596 52.44H52.44V7.55997H7.55997V52.434L7.56596 52.44Z" fill="#0044CC"/>
<path d="M23.76 17.0338V16.5358H23.262V17.0338H23.76ZM18.03 21.6238L17.67 21.2818L17.532 21.4198V21.6178H18.03V21.6238ZM37.974 17.0338H38.472C38.472 16.7518 38.25 16.5358 37.974 16.5358V17.0338ZM23.76 21.8878V22.3858C24.036 22.3858 24.258 22.1638 24.258 21.8878H23.76ZM20.424 21.3898C20.148 21.3898 19.926 21.6178 19.926 21.8878C19.926 22.1578 20.148 22.3858 20.424 22.3858V21.3898ZM21.984 18.1678C22.176 17.9698 22.164 17.6578 21.966 17.4718C21.768 17.2798 21.45 17.2918 21.258 17.4898L21.984 18.1678ZM18.03 42.1498H17.532C17.532 42.4198 17.754 42.6478 18.03 42.6478V42.1498ZM28.002 42.6478C28.278 42.6478 28.5 42.4198 28.5 42.1498C28.5 41.8798 28.278 41.6518 28.002 41.6518V42.6478ZM37.476 28.4998C37.476 28.7818 37.698 28.9978 37.974 28.9978C38.25 28.9978 38.472 28.7758 38.472 28.4998H37.476ZM17.532 21.6178V25.8958H18.528V21.6178H17.532ZM37.974 16.5298H23.76V17.5258H37.974V16.5298ZM23.256 17.0278V21.8818H24.252V17.0278H23.256ZM23.754 21.3838H20.418V22.3798H23.754V21.3838ZM18.39 21.9538L21.978 18.1618L21.252 17.4838L17.664 21.2758L18.39 21.9538ZM18.528 42.1498V25.8958H17.532V42.1498H18.528ZM18.03 42.6478H28.002V41.6518H18.03V42.6478ZM37.482 17.0338V28.4998H38.478V17.0338H37.482Z" fill="#0044CC"/>
<g opacity="0.6">
<path d="M29.004 26.5082H23.52C23.244 26.5082 23.022 26.2862 23.022 26.0102C23.022 25.7342 23.244 25.5122 23.52 25.5122H29.004C29.28 25.5122 29.502 25.7342 29.502 26.0102C29.502 26.2862 29.28 26.5082 29.004 26.5082Z" fill="#FF6B00"/>
</g>
<g opacity="0.6">
<path d="M29.004 32.496H23.52C23.244 32.496 23.022 32.274 23.022 31.998C23.022 31.722 23.244 31.5 23.52 31.5H29.004C29.28 31.5 29.502 31.722 29.502 31.998C29.502 32.274 29.28 32.496 29.004 32.496Z" fill="#FF6B00"/>
</g>
<g opacity="0.6">
<path d="M31.494 29.5019H23.514C23.238 29.5019 23.016 29.2799 23.016 29.0039C23.016 28.7279 23.238 28.5059 23.514 28.5059H31.494C31.77 28.5059 31.992 28.7279 31.992 29.0039C31.992 29.2799 31.77 29.5019 31.494 29.5019Z" fill="#FF6B00"/>
</g>
<path d="M30.9661 37.4278C30.9661 37.4278 30.9181 37.4278 30.8881 37.4278C30.6181 37.3858 30.4261 37.1338 30.4681 36.8578C30.7141 35.2498 31.4521 33.7978 32.5981 32.6578C34.0261 31.2298 35.9281 30.4438 37.9501 30.4438C39.9721 30.4438 41.8741 31.2298 43.3021 32.6638C43.8181 33.1798 44.2561 33.7558 44.5921 34.3798C44.7241 34.6198 44.6341 34.9258 44.3941 35.0578C44.1541 35.1898 43.8481 35.0998 43.7161 34.8598C43.4221 34.3198 43.0441 33.8158 42.5941 33.3718C41.3521 32.1298 39.7021 31.4458 37.9441 31.4458C36.1861 31.4458 34.5361 32.1298 33.2941 33.3718C32.2981 34.3618 31.6561 35.6158 31.4461 37.0138C31.4101 37.2598 31.1941 37.4338 30.9541 37.4338L30.9661 37.4278Z" fill="#0044CC"/>
<path d="M44.628 35.3159H40.944C40.668 35.3159 40.446 35.0939 40.446 34.8179C40.446 34.5419 40.668 34.3199 40.944 34.3199H44.13V31.1279C44.13 30.8519 44.352 30.6299 44.628 30.6299C44.904 30.6299 45.126 30.8519 45.126 31.1279V34.8179C45.126 35.0939 44.904 35.3159 44.628 35.3159Z" fill="#0044CC"/>
<path d="M37.998 45.2638C36.06 45.2638 34.122 44.5258 32.646 43.0498C32.124 42.5158 31.692 41.9338 31.356 41.3218C31.224 41.0818 31.314 40.7758 31.554 40.6438C31.794 40.5118 32.1 40.6018 32.232 40.8418C32.526 41.3758 32.904 41.8798 33.36 42.3478C35.922 44.9098 40.092 44.9038 42.6539 42.3478C43.65 41.3518 44.292 40.0858 44.502 38.6938C44.544 38.4238 44.796 38.2378 45.072 38.2798C45.342 38.3218 45.534 38.5738 45.492 38.8498C45.246 40.4518 44.5079 41.9038 43.3619 43.0558C41.886 44.5318 39.948 45.2698 38.01 45.2698L37.998 45.2638Z" fill="#0044CC"/>
<path d="M31.332 45.0659C31.056 45.0659 30.834 44.8439 30.834 44.5679V40.8779C30.834 40.6019 31.056 40.3799 31.332 40.3799H35.016C35.292 40.3799 35.514 40.6019 35.514 40.8779C35.514 41.1539 35.292 41.3759 35.016 41.3759H31.83V44.5679C31.83 44.8439 31.608 45.0659 31.332 45.0659Z" fill="#0044CC"/>
</g>
<defs>
<clipPath id="clip0_239_3341">
<rect width="60" height="60" fill="white"/>
</clipPath>
</defs>
</svg>
