<svg width="16" height="16" viewBox="0 0 16 16" fill="none" xmlns="http://www.w3.org/2000/svg">
<path d="M9.41399 12.2427C10.5856 13.4142 12.4851 13.4142 13.6566 12.2427C14.8282 11.0711 14.8282 9.17159 13.6566 8.00002" stroke="#3B3FB5" stroke-linecap="round" stroke-linejoin="round"/>
<path d="M9.414 12.2426L4.46426 7.29286M7.29268 4.46444L10.9225 8.09425" stroke="#3B3FB5" stroke-linecap="round" stroke-linejoin="round"/>
<path d="M8.70687 3.05025L13.6566 8" stroke="#3B3FB5" stroke-linecap="round" stroke-linejoin="round"/>
<path d="M8.70684 3.05023C7.14474 1.48814 4.61208 1.48814 3.04998 3.05023C1.48789 4.61233 1.48789 7.14499 3.04998 8.70709" stroke="#3B3FB5" stroke-linecap="round" stroke-linejoin="round"/>
<path d="M3.05 8.7071L6.93909 12.5962" stroke="#3B3FB5" stroke-linecap="round" stroke-linejoin="round"/>
<path d="M7.29269 4.46445C6.51164 3.6834 5.24531 3.6834 4.46426 4.46445C3.68321 5.2455 3.68321 6.51183 4.46426 7.29288" stroke="#3B3FB5" stroke-linecap="round" stroke-linejoin="round"/>
</svg>
