<svg width="100" height="100" viewBox="0 0 100 100" fill="none" xmlns="http://www.w3.org/2000/svg">
<g clip-path="url(#clip0_239_1906)">
<path d="M100 0H0V100H100V0Z" fill="white"/>
<g opacity="0.2">
<path d="M33.3801 46.68C33.3801 45.76 34.1301 45.02 35.0401 45.02H58.3101C59.2201 45.02 59.9701 45.76 59.9701 46.68V59.28C59.9701 60.94 56.6001 62.92 54.9301 62.79C50.5301 62.44 43.7401 63.55 35.2501 64.72C34.2501 64.85 33.3701 64.07 33.3701 63.07V46.68H33.3801Z" fill="#0055FF"/>
</g>
<path d="M59.97 73.27C68.2322 73.27 74.93 66.5722 74.93 58.31C74.93 50.0478 68.2322 43.35 59.97 43.35C51.7078 43.35 45.01 50.0478 45.01 58.31C45.01 66.5722 51.7078 73.27 59.97 73.27Z" fill="white"/>
<path d="M45.0101 65.24H33.3801C30.1701 65.24 27.5601 62.63 27.5601 59.42V33.38C27.5601 32.92 27.9301 32.55 28.3901 32.55H41.3701C42.6101 32.55 43.7801 33.1 44.5701 34.06L47.6801 37.81H68.2801C68.7401 37.81 69.1101 38.18 69.1101 38.64V44.18C69.1101 44.64 68.7401 45.01 68.2801 45.01C67.8201 45.01 67.4501 44.64 67.4501 44.18V39.47H47.2901C47.0401 39.47 46.8101 39.36 46.6501 39.17L43.2901 35.12C42.8101 34.54 42.1101 34.21 41.3701 34.21H29.2201V59.42C29.2201 61.71 31.0801 63.58 33.3801 63.58H45.0101C45.4701 63.58 45.8401 63.95 45.8401 64.41C45.8401 64.87 45.4701 65.24 45.0101 65.24Z" fill="#0044CC"/>
<path d="M40.8601 38.92H33.6601C33.2001 38.92 32.8301 38.55 32.8301 38.09C32.8301 37.63 33.2001 37.26 33.6601 37.26H40.8601C41.3201 37.26 41.6901 37.63 41.6901 38.09C41.6901 38.55 41.3201 38.92 40.8601 38.92Z" fill="#0044CC"/>
<path d="M50 94.04C49.86 94.04 49.71 94 49.58 93.93L12.15 72.32C11.89 72.17 11.73 71.9 11.73 71.6V28.39C11.73 28.09 11.89 27.82 12.15 27.67L49.59 6.06999C49.85 5.91999 50.16 5.91999 50.42 6.06999L87.85 27.68C88.11 27.83 88.27 28.1 88.27 28.4V71.61C88.27 71.91 88.11 72.18 87.85 72.33L50.42 93.94C50.29 94.01 50.15 94.05 50 94.05V94.04ZM13.4 71.12L50 92.25L86.6 71.12V28.87L50 7.74999L13.4 28.87V71.12Z" fill="#0044CC"/>
<path d="M46.2101 58.51C46.2101 58.96 46.5901 59.32 47.0601 59.32C47.5301 59.32 47.8701 58.94 47.8701 58.47L46.2101 58.5V58.51ZM48.9901 63.98C48.5401 63.86 48.0901 64.13 47.9801 64.58L46.0501 71.79C45.9301 72.24 46.2001 72.69 46.6301 72.82C47.0801 72.94 47.5301 72.67 47.6401 72.22L49.3701 65.8L55.7901 67.51C56.2401 67.63 56.6901 67.36 56.8001 66.91C56.9201 66.48 56.6701 66.01 56.2201 65.9L48.9901 63.97V63.98ZM68.7401 66.66C64.1401 71.5 56.4701 71.68 51.6401 67.08L50.4901 68.29C55.9901 73.53 64.7001 73.31 69.9501 67.81L68.7401 66.66ZM51.2201 49.97C55.8201 45.13 63.4901 44.95 68.3201 49.56L69.4701 48.36C63.9701 43.12 55.2601 43.33 50.0101 48.83L51.2201 49.98V49.97ZM68.3201 49.56C73.1601 54.17 73.3401 61.83 68.7401 66.66L69.9501 67.81C75.1901 62.31 74.9701 53.6 69.4701 48.36L68.3201 49.56ZM47.8801 58.49C47.8301 55.44 48.9401 52.37 51.2201 49.98L50.0101 48.83C47.4301 51.55 46.1701 55.04 46.2201 58.52L47.8801 58.49ZM51.6401 67.08C50.7801 66.27 50.0601 65.35 49.5101 64.37L48.0601 65.22C48.7101 66.32 49.5101 67.36 50.4901 68.29L51.6401 67.08Z" fill="#0044CC"/>
<path d="M60.65 44.98H58.99V48.3H60.65V44.98Z" fill="#0044CC"/>
<path d="M60.65 68.62H58.99V71.94H60.65V68.62Z" fill="#0044CC"/>
<path d="M73.11 57.44H69.79V59.1H73.11V57.44Z" fill="#0044CC"/>
<path d="M59.8201 60.87C59.6101 60.87 59.4101 60.79 59.2501 60.65L54.0801 55.82C53.7501 55.51 53.7301 54.98 54.0401 54.64C54.3501 54.31 54.8801 54.29 55.2201 54.6L59.7101 58.8L65.8001 50.68C66.0701 50.31 66.6001 50.24 66.9601 50.51C67.3301 50.78 67.4001 51.31 67.1301 51.67L60.4801 60.53C60.3401 60.72 60.1201 60.84 59.8901 60.86C59.8701 60.86 59.8401 60.86 59.8201 60.86V60.87Z" fill="#FF6B00"/>
<path d="M59.9701 60.97C60.8869 60.97 61.6301 60.2268 61.6301 59.31C61.6301 58.3932 60.8869 57.65 59.9701 57.65C59.0533 57.65 58.3101 58.3932 58.3101 59.31C58.3101 60.2268 59.0533 60.97 59.9701 60.97Z" fill="white"/>
<path d="M59.97 61.8C58.6 61.8 57.48 60.68 57.48 59.31C57.48 57.94 58.6 56.82 59.97 56.82C61.34 56.82 62.46 57.94 62.46 59.31C62.46 60.68 61.34 61.8 59.97 61.8ZM59.97 58.48C59.51 58.48 59.14 58.85 59.14 59.31C59.14 59.77 59.51 60.14 59.97 60.14C60.43 60.14 60.8 59.77 60.8 59.31C60.8 58.85 60.43 58.48 59.97 58.48Z" fill="#FF6B00"/>
</g>
<defs>
<clipPath id="clip0_239_1906">
<rect width="100" height="100" fill="white"/>
</clipPath>
</defs>
</svg>
