<svg width="60" height="60" viewBox="0 0 60 60" fill="none" xmlns="http://www.w3.org/2000/svg">
<g clip-path="url(#clip0_239_2640)">
<path d="M60 0H0V60H60V0Z" fill="white"/>
<g opacity="0.2">
<path d="M14.046 27.786V23.082L17.994 18.912L18.696 18.282C18.876 18.12 19.116 18.03 19.356 18.03H35.982V41.664C35.982 43.866 34.194 45.654 31.992 45.654H14.04V27.786H14.046Z" fill="#0055FF"/>
</g>
<path d="M18.036 25.9019V21.6239L21.624 17.8319L22.236 17.2859C22.416 17.1239 22.656 17.0339 22.896 17.0339H37.974V38.1659C37.974 40.3619 36.186 42.1559 33.984 42.1559H18.03V25.9019H18.036Z" fill="white"/>
<path d="M52.938 53.436H7.06197C6.78597 53.436 6.56396 53.214 6.56396 52.938V7.06197C6.56396 6.78597 6.78597 6.56396 7.06197 6.56396H52.932C53.208 6.56396 53.43 6.78597 53.43 7.06197V52.932C53.43 53.208 53.208 53.43 52.932 53.43L52.938 53.436ZM7.56596 52.44H52.44V7.55997H7.55997V52.434L7.56596 52.44Z" fill="#0044CC"/>
<path d="M23.76 17.0339V16.5359H23.262V17.0339H23.76ZM18.03 21.6239L17.67 21.2819L17.532 21.4199V21.6179H18.03V21.6239ZM37.974 17.0339H38.472C38.472 16.7519 38.25 16.5359 37.974 16.5359V17.0339ZM23.76 21.8879V22.3859C24.036 22.3859 24.258 22.1639 24.258 21.8879H23.76ZM20.424 21.3899C20.148 21.3899 19.926 21.6179 19.926 21.8879C19.926 22.1579 20.148 22.3859 20.424 22.3859V21.3899ZM21.984 18.1679C22.176 17.9699 22.164 17.6579 21.966 17.4719C21.768 17.2799 21.45 17.2919 21.258 17.4899L21.984 18.1679ZM18.03 42.1499H17.532C17.532 42.4199 17.754 42.6479 18.03 42.6479V42.1499ZM17.532 21.6179V25.8959H18.528V21.6179H17.532ZM38.472 22.5779V17.0339H37.476V22.5779H38.472ZM37.974 16.5359H23.76V17.5319H37.974V16.5359ZM23.256 17.0339V21.8879H24.252V17.0339H23.256ZM23.754 21.3899H20.418V22.3859H23.754V21.3899ZM18.39 21.9599L21.978 18.1679L21.252 17.4899L17.664 21.2819L18.39 21.9599ZM37.476 22.5779V38.1659H38.472V22.5779H37.476ZM33.984 41.6519H18.03V42.6479H33.984V41.6519ZM18.528 42.1499V25.8959H17.532V42.1499H18.528ZM37.476 38.1599C37.476 40.0859 35.916 41.6519 33.984 41.6519V42.6479C36.462 42.6479 38.472 40.6319 38.472 38.1599H37.476Z" fill="#0044CC"/>
<g opacity="0.6">
<path d="M29.004 26.508H23.52C23.244 26.508 23.022 26.286 23.022 26.01C23.022 25.734 23.244 25.512 23.52 25.512H29.004C29.28 25.512 29.502 25.734 29.502 26.01C29.502 26.286 29.28 26.508 29.004 26.508Z" fill="#FF6B00"/>
</g>
<g opacity="0.6">
<path d="M29.004 32.496H23.52C23.244 32.496 23.022 32.274 23.022 31.998C23.022 31.722 23.244 31.5 23.52 31.5H29.004C29.28 31.5 29.502 31.722 29.502 31.998C29.502 32.274 29.28 32.496 29.004 32.496Z" fill="#FF6B00"/>
</g>
<g opacity="0.6">
<path d="M31.494 29.5021H23.514C23.238 29.5021 23.016 29.2801 23.016 29.0041C23.016 28.7281 23.238 28.5061 23.514 28.5061H31.494C31.77 28.5061 31.992 28.7281 31.992 29.0041C31.992 29.2801 31.77 29.5021 31.494 29.5021Z" fill="#FF6B00"/>
</g>
<path d="M42.696 21.8999C43.698 20.8619 45.348 20.8319 46.386 21.8399C47.424 22.8359 47.448 24.4919 46.446 25.5299L38.682 33.5579C37.308 34.9739 35.562 35.9699 33.642 36.4319L31.866 36.8519L32.226 35.0639C32.616 33.1319 33.552 31.3559 34.926 29.9279L42.69 21.8999H42.696Z" fill="white"/>
<path d="M31.8779 37.3501C31.7519 37.3501 31.6259 37.3021 31.5299 37.2121C31.4099 37.0921 31.3559 36.9181 31.3859 36.7561L31.7459 34.9681C32.1539 32.9461 33.1319 31.0861 34.5779 29.5861L42.3419 21.5581C42.9179 20.9581 43.6979 20.6221 44.5259 20.6101C45.3539 20.6221 46.1399 20.9101 46.7399 21.4861C47.334 22.0561 47.67 22.8301 47.688 23.6581C47.706 24.4921 47.3939 25.2781 46.8119 25.8781L39.0479 33.9061C37.6079 35.3941 35.7779 36.4381 33.7679 36.9181L31.9919 37.3381C31.9559 37.3501 31.9139 37.3501 31.8779 37.3501ZM44.58 21.6061H44.5439C43.9799 21.6121 43.4519 21.8461 43.0619 22.2481L35.2979 30.2761C33.9899 31.6381 33.1019 33.3301 32.7299 35.1601L32.5259 36.1801L33.5399 35.9401C35.3699 35.5021 37.0259 34.5601 38.3339 33.2041L46.0979 25.1761C46.4879 24.7681 46.7039 24.2341 46.6919 23.6701C46.6799 23.1061 46.4519 22.5841 46.0499 22.1941C45.6539 21.8101 45.132 21.5941 44.58 21.5941V21.6061Z" fill="#0044CC"/>
</g>
<defs>
<clipPath id="clip0_239_2640">
<rect width="60" height="60" fill="white"/>
</clipPath>
</defs>
</svg>
