<svg width="32" height="32" viewBox="0 0 32 32" fill="none" xmlns="http://www.w3.org/2000/svg">
<circle cx="16" cy="16" r="16" fill="#222222"/>
<path d="M16.1986 10.7415C16.6397 10.6986 17.0675 10.5654 17.4556 10.3502C17.8436 10.135 18.1837 9.84225 18.455 9.49004C19.0125 8.80803 19.3298 7.95988 19.3575 7.07773C19.3672 6.9661 19.3672 6.85382 19.3575 6.74219C18.3952 6.8471 17.5129 7.32944 16.9026 8.08437C16.3461 8.73518 16.0277 9.5575 16 10.4151C15.9853 10.5173 15.9853 10.6212 16 10.7234L16.1986 10.7415ZM13.5541 24.0002C14.583 24.0002 15.0343 23.2837 16.3159 23.2837C17.5975 23.2837 17.9044 23.982 19.0236 23.982C20.1428 23.982 20.8919 22.9028 21.5959 21.8509C22.0886 21.0949 22.4743 20.2739 22.7422 19.4113C22.0745 19.1106 21.5083 18.6213 21.1125 18.003C20.7167 17.3847 20.5083 16.6641 20.5128 15.9289C20.5166 15.2725 20.6838 14.6274 20.999 14.0524C21.3143 13.4775 21.7677 12.9909 22.318 12.6369C21.9553 12.1 21.4647 11.6627 20.8909 11.3649C20.3171 11.0672 19.6783 10.9183 19.0326 10.932C17.769 10.932 16.7401 11.721 16.0993 11.721C15.4585 11.721 14.4837 10.9773 13.3916 10.9773C11.3157 10.9773 9.21272 12.7911 9.21272 16.1012C9.25312 18.1286 9.85645 20.1043 10.9547 21.8055C11.8031 23.0117 12.5161 24.0002 13.5541 24.0002Z" fill="white"/>
</svg>
