<svg width="100" height="100" viewBox="0 0 100 100" fill="none" xmlns="http://www.w3.org/2000/svg">
<g clip-path="url(#clip0_239_1921)">
<path d="M100 0H0V100H100V0Z" fill="white"/>
<path d="M50 94.04C49.86 94.04 49.71 94 49.58 93.93L12.16 72.32C11.9 72.17 11.74 71.9 11.74 71.6V28.39C11.74 28.09 11.9 27.82 12.16 27.67L49.58 6.06999C49.84 5.91999 50.15 5.91999 50.41 6.06999L87.83 27.68C88.09 27.83 88.25 28.1 88.25 28.4V71.61C88.25 71.91 88.09 72.18 87.83 72.33L50.41 93.94C50.28 94.01 50.14 94.05 49.99 94.05L50 94.04ZM13.41 71.12L50 92.25L86.59 71.12V28.87L50 7.74999L13.41 28.87V71.12Z" fill="#0044CC"/>
<g opacity="0.2">
<path fill-rule="evenodd" clip-rule="evenodd" d="M31.48 34.94C31.48 30.4 35.16 26.73 39.69 26.73C44.22 26.73 47.9 30.41 47.9 34.94V36.18C48.92 36.47 49.66 37.36 49.66 38.41C49.66 39.7 48.54 40.75 47.17 40.75C47.15 40.75 47.13 40.75 47.1 40.75C45.78 43.52 42.96 45.43 39.69 45.43C36.42 45.43 33.6 43.52 32.28 40.75C32.26 40.75 32.24 40.75 32.22 40.75C30.84 40.75 29.73 39.7 29.73 38.41C29.73 37.36 30.47 36.47 31.49 36.18V34.94H31.48Z" fill="#0055FF"/>
</g>
<path d="M39.6899 46.26C36.3899 46.26 33.3199 44.43 31.7499 41.55C30.1099 41.32 28.8899 40 28.8899 38.42C28.8899 37.22 29.5799 36.16 30.6499 35.62V34.94C30.6499 29.95 34.7099 25.9 39.6899 25.9C44.6699 25.9 48.7299 29.96 48.7299 34.94V35.62C49.7999 36.16 50.4899 37.22 50.4899 38.42C50.4899 40.02 49.2399 41.35 47.6199 41.56C46.0399 44.43 42.9799 46.26 39.6799 46.26H39.6899ZM39.6899 27.56C35.6199 27.56 32.3099 30.87 32.3099 34.94V36.8L31.7099 36.97C31.0199 37.17 30.5499 37.75 30.5499 38.4C30.5499 39.23 31.2999 39.91 32.2099 39.91H32.7299L33.0199 40.38C34.2399 42.93 36.8599 44.58 39.6799 44.58C42.4999 44.58 45.1199 42.93 46.3399 40.38L46.5899 39.87L47.1599 39.91C48.0799 39.91 48.8199 39.23 48.8199 38.4C48.8199 37.74 48.3499 37.16 47.6599 36.97L47.0599 36.8V34.94C47.0599 30.87 43.7499 27.56 39.6799 27.56H39.6899Z" fill="#0044CC"/>
<g opacity="0.2">
<path d="M22.55 55.68L22.45 57.16L21.75 69.81H58.32V68.41L57.62 57.19L57.59 56.74C57.15 49.58 49.94 44.85 43.19 47.31L42.83 47.44C40.58 48.26 38.11 48.22 35.89 47.33C29.77 44.88 23.04 49.1 22.57 55.67L22.55 55.68Z" fill="#0055FF"/>
</g>
<path d="M58.31 70.64H21.75C21.52 70.64 21.3 70.55 21.15 70.38C20.99 70.21 20.91 69.99 20.92 69.76L21.73 55.62C21.97 52.22 23.77 49.23 26.66 47.42C29.55 45.61 33.03 45.3 36.19 46.56C38.22 47.37 40.48 47.41 42.54 46.66L42.9 46.53C46.37 45.27 50.12 45.7 53.21 47.73C56.29 49.75 58.19 53.02 58.42 56.7L59.15 68.37V69.82C59.15 70.28 58.78 70.65 58.32 70.65L58.31 70.64ZM22.62 68.98H57.48V68.42L56.75 56.8C56.56 53.65 54.93 50.85 52.29 49.12C49.65 47.39 46.43 47.01 43.46 48.1L43.1 48.23C40.66 49.12 37.98 49.08 35.56 48.11C32.89 47.05 29.96 47.31 27.53 48.83C25.1 50.36 23.58 52.87 23.38 55.74L23.28 57.22L22.63 68.98H22.62Z" fill="#0044CC"/>
<path fill-rule="evenodd" clip-rule="evenodd" d="M57.38 34.3C57.38 30.58 60.4 27.56 64.12 27.56C67.84 27.56 70.86 30.58 70.86 34.3V35.32C71.7 35.56 72.3 36.29 72.3 37.15C72.3 38.21 71.38 39.07 70.26 39.07H70.2099C69.1299 41.34 66.8099 42.91 64.1299 42.91C61.4499 42.91 59.1299 41.34 58.0499 39.07H58C56.87 39.07 55.95 38.21 55.95 37.15C55.95 36.29 56.5599 35.56 57.3899 35.32V34.3H57.38Z" fill="white"/>
<path d="M64.1101 43.74C61.3701 43.74 58.8301 42.23 57.5001 39.86C56.1201 39.63 55.1001 38.5 55.1001 37.16C55.1001 36.15 55.6601 35.25 56.5401 34.77V34.31C56.5401 30.14 59.9401 26.74 64.1101 26.74C68.2801 26.74 71.6801 30.14 71.6801 34.31V34.77C72.5601 35.25 73.1201 36.15 73.1201 37.16C73.1201 38.52 72.0801 39.66 70.7101 39.87C69.3801 42.24 66.8401 43.74 64.1001 43.74H64.1101ZM64.1101 28.4C60.8501 28.4 58.2001 31.05 58.2001 34.31V35.95L57.6001 36.12C57.0901 36.27 56.7601 36.68 56.7601 37.16C56.7601 37.76 57.3101 38.25 57.9701 38.25H58.4901L58.7701 38.72C59.7501 40.76 61.8401 42.08 64.1001 42.08C66.3601 42.08 68.4601 40.76 69.4301 38.72L69.6601 38.25H70.1801C70.9001 38.25 71.4501 37.76 71.4501 37.16C71.4501 36.69 71.1101 36.27 70.6101 36.12L70.0101 35.95V34.31C70.0101 31.05 67.3601 28.4 64.1001 28.4H64.1101Z" fill="#0044CC"/>
<path d="M77.9201 61.63C77.4801 61.63 77.1201 61.29 77.0901 60.85L76.5801 52.17C76.4301 49.78 75.2701 47.78 73.3801 46.54C71.4801 45.29 69.1601 45.02 67.0101 45.8C65.1501 46.48 63.0901 46.5 61.2201 45.85L59.7101 45.32C56.9301 44.35 53.8701 45.83 52.8901 48.61C52.7401 49.04 52.2601 49.27 51.8301 49.12C51.4001 48.97 51.1701 48.49 51.3201 48.06C52.6001 44.42 56.6101 42.5 60.2501 43.75L61.7601 44.28C63.2701 44.8 64.9301 44.79 66.4401 44.24C69.0801 43.28 71.9401 43.61 74.2901 45.15C76.6201 46.68 78.0601 49.15 78.2301 51.92L78.7501 60.75C78.7801 61.21 78.4301 61.6 77.9701 61.63C77.9501 61.63 77.9401 61.63 77.9201 61.63Z" fill="#0044CC"/>
<path d="M57.48 59.97C57.94 59.97 58.31 59.6 58.31 59.14C58.31 58.68 57.94 58.31 57.48 58.31V59.97ZM37.45 58.56C37.13 58.88 37.13 59.41 37.45 59.72L42.74 65.02C43.06 65.34 43.59 65.34 43.92 65.02C44.25 64.69 44.25 64.16 43.92 63.84L39.22 59.14L43.92 54.44C44.25 54.12 44.25 53.59 43.92 53.26C43.6 52.94 43.07 52.94 42.74 53.26L37.45 58.56ZM57.48 58.31H38.03V59.97H57.48V58.31Z" fill="#0044CC"/>
<g opacity="0.8">
<path d="M63.3001 50C62.8401 50 62.4701 50.37 62.4701 50.83C62.4701 51.29 62.8401 51.66 63.3001 51.66V50ZM59.1401 58.31C58.6801 58.31 58.3101 58.68 58.3101 59.14C58.3101 59.6 58.6801 59.97 59.1401 59.97V58.31ZM63.3001 51.66H68.2901V50H63.3001V51.66ZM68.2901 58.31H59.1501V59.97H68.2901V58.31ZM71.6101 54.99C71.6101 56.82 70.1201 58.31 68.2901 58.31V59.97C71.0401 59.97 73.2801 57.74 73.2801 54.98H71.6201L71.6101 54.99ZM68.2901 51.67C70.1301 51.67 71.6101 53.17 71.6101 54.99H73.2701C73.2701 52.23 71.0401 50 68.2801 50V51.66L68.2901 51.67Z" fill="#FF6B00"/>
</g>
</g>
<defs>
<clipPath id="clip0_239_1921">
<rect width="100" height="100" fill="white"/>
</clipPath>
</defs>
</svg>
