<svg width="60" height="60" viewBox="0 0 60 60" fill="none" xmlns="http://www.w3.org/2000/svg">
<g clip-path="url(#clip0_239_2147)">
<path d="M60 0H0V60H60V0Z" fill="white"/>
<g opacity="0.2">
<path d="M29.004 26.01H24.018C23.4679 26.01 23.022 26.4559 23.022 27.006V39.972C23.022 40.5221 23.4679 40.968 24.018 40.968H29.004C29.554 40.968 30 40.5221 30 39.972V27.006C30 26.4559 29.554 26.01 29.004 26.01Z" fill="#0055FF"/>
</g>
<path d="M30 56.424C29.916 56.424 29.826 56.4 29.748 56.358L7.28996 43.392C7.13396 43.302 7.03796 43.14 7.03796 42.96V17.034C7.03796 16.854 7.13396 16.692 7.28996 16.602L29.754 3.64196C29.91 3.55196 30.096 3.55196 30.252 3.64196L52.71 16.608C52.866 16.698 52.962 16.86 52.962 17.04V42.966C52.962 43.146 52.866 43.308 52.71 43.398L30.252 56.364C30.174 56.406 30.09 56.43 30 56.43V56.424ZM8.03996 42.672L30 55.35L51.96 42.672V17.322L30 4.64996L8.03996 17.322V42.672Z" fill="#0044CC"/>
<g opacity="0.9">
<path d="M33.936 21.6359C33.714 21.6359 33.51 21.4859 33.456 21.2639L33.168 20.1539C32.994 19.4939 32.4 19.0319 31.716 19.0319H28.326C27.642 19.0319 27.048 19.4939 26.886 20.1539L26.592 21.2699C26.52 21.5339 26.256 21.7019 25.986 21.6239C25.722 21.5519 25.56 21.2819 25.632 21.0179L25.92 19.9079C26.19 18.8099 27.186 18.0359 28.326 18.0359H31.716C32.85 18.0359 33.846 18.8039 34.134 19.9079L34.422 21.0179C34.494 21.2819 34.332 21.5579 34.068 21.6239C34.026 21.6359 33.984 21.6419 33.942 21.6419L33.936 21.6359Z" fill="#FF6B00"/>
</g>
<path d="M34.698 41.7H25.356C24.036 41.7 22.962 40.71 22.866 39.396L21.708 24.288C21.696 24.15 21.744 24.012 21.84 23.91C21.936 23.808 22.068 23.748 22.206 23.748H37.854C37.992 23.748 38.124 23.808 38.22 23.91C38.316 24.012 38.364 24.15 38.352 24.288L37.188 39.396C37.092 40.692 36 41.7 34.71 41.7H34.698ZM22.74 24.75L23.856 39.318C23.916 40.11 24.558 40.704 25.35 40.704H34.692C35.478 40.704 36.12 40.11 36.18 39.318L37.308 24.75H22.74Z" fill="#0044CC"/>
<path d="M38.976 23.364C38.7 23.364 38.478 23.142 38.478 22.866V22.368C38.478 22.092 38.256 21.87 37.98 21.87H22.026C21.75 21.87 21.528 22.092 21.528 22.368V22.866C21.528 23.142 21.306 23.364 21.03 23.364C20.754 23.364 20.532 23.142 20.532 22.866V22.368C20.532 21.546 21.204 20.874 22.026 20.874H37.98C38.802 20.874 39.474 21.546 39.474 22.368V22.866C39.474 23.142 39.252 23.364 38.976 23.364Z" fill="#0044CC"/>
<path d="M29.8501 35.3341C29.5741 35.3341 29.3521 35.1121 29.3521 34.8361V29.3161C29.3521 29.0401 29.5741 28.8181 29.8501 28.8181C30.1261 28.8181 30.3481 29.0401 30.3481 29.3161V34.8361C30.3481 35.1121 30.1261 35.3341 29.8501 35.3341Z" fill="#0044CC"/>
<path d="M26.262 36.6299C25.986 36.6299 25.764 36.4079 25.764 36.1319V28.0019C25.764 27.7259 25.986 27.5039 26.262 27.5039C26.538 27.5039 26.76 27.7259 26.76 28.0019V36.1319C26.76 36.4079 26.538 36.6299 26.262 36.6299Z" fill="#0044CC"/>
<path d="M33.4379 36.6299C33.1619 36.6299 32.9399 36.4079 32.9399 36.1319V28.0019C32.9399 27.7259 33.1619 27.5039 33.4379 27.5039C33.7139 27.5039 33.9359 27.7259 33.9359 28.0019V36.1319C33.9359 36.4079 33.7139 36.6299 33.4379 36.6299Z" fill="#0044CC"/>
</g>
<defs>
<clipPath id="clip0_239_2147">
<rect width="60" height="60" fill="white"/>
</clipPath>
</defs>
</svg>
