<svg width="60" height="60" viewBox="0 0 60 60" fill="none" xmlns="http://www.w3.org/2000/svg">
<g clip-path="url(#clip0_239_2932)">
<path d="M60 0H0V60H60V0Z" fill="white"/>
<path d="M52.938 53.436H7.06197C6.78597 53.436 6.56396 53.214 6.56396 52.938V7.06197C6.56396 6.78597 6.78597 6.56396 7.06197 6.56396H52.932C53.208 6.56396 53.43 6.78597 53.43 7.06197V52.932C53.43 53.208 53.208 53.43 52.932 53.43L52.938 53.436ZM7.56596 52.44H52.44V7.55997H7.55997V52.434L7.56596 52.44Z" fill="#0044CC"/>
<path d="M30 40.8721C25.032 40.8721 20.994 36.8341 20.994 31.8661V29.7301C20.994 24.7621 25.032 20.7241 30 20.7241C34.968 20.7241 39.006 24.7621 39.006 29.7301V31.8661C39.006 36.8341 34.968 40.8721 30 40.8721ZM30 21.7261C25.584 21.7261 21.99 25.3201 21.99 29.7361V31.8721C21.99 36.2881 25.584 39.8821 30 39.8821C34.416 39.8821 38.01 36.2881 38.01 31.8721V29.7361C38.01 25.3201 34.416 21.7261 30 21.7261Z" fill="#0044CC"/>
<g opacity="0.1">
<path d="M22.02 26.01C22.02 23.808 23.808 22.02 26.01 22.02C28.212 22.02 30 23.808 30 26.01V35.982C30 38.184 28.212 39.972 26.01 39.972C23.808 39.972 22.02 38.184 22.02 35.982V26.01Z" fill="#0055FF"/>
</g>
<path d="M30 44.958C32.7537 44.958 34.986 43.1716 34.986 40.968C34.986 38.7644 32.7537 36.978 30 36.978C27.2463 36.978 25.014 38.7644 25.014 40.968C25.014 43.1716 27.2463 44.958 30 44.958Z" fill="white"/>
<g opacity="0.8">
<path d="M18.948 37.0922H17.718C15.414 37.0922 13.542 35.2202 13.542 32.9162C13.542 30.6122 15.414 28.7402 17.718 28.7402H18.948C19.224 28.7402 19.446 28.9622 19.446 29.2382C19.446 29.5142 19.224 29.7362 18.948 29.7362H17.718C15.966 29.7362 14.538 31.1642 14.538 32.9162C14.538 34.6682 15.966 36.0962 17.718 36.0962H18.948C19.224 36.0962 19.446 36.3182 19.446 36.5942C19.446 36.8702 19.224 37.0922 18.948 37.0922Z" fill="#FF6B00"/>
</g>
<g opacity="0.8">
<path d="M42.276 37.0922H41.046C40.77 37.0922 40.548 36.8702 40.548 36.5942C40.548 36.3182 40.77 36.0962 41.046 36.0962H42.276C44.028 36.0962 45.456 34.6682 45.456 32.9162C45.456 31.1642 44.028 29.7362 42.276 29.7362H41.046C40.77 29.7362 40.548 29.5142 40.548 29.2382C40.548 28.9622 40.77 28.7402 41.046 28.7402H42.276C44.58 28.7402 46.452 30.6122 46.452 32.9162C46.452 35.2202 44.58 37.0922 42.276 37.0922Z" fill="#FF6B00"/>
</g>
<path d="M34.0861 43.2242H32.9881C32.7121 43.2242 32.4901 43.0022 32.4901 42.7262C32.4901 42.4502 32.7121 42.2282 32.9881 42.2282H34.0861C37.6501 42.2282 40.5481 39.3302 40.5481 35.7662V29.0822C40.5481 23.2622 35.8141 18.5342 30.0001 18.5342C24.1861 18.5342 19.4521 23.2682 19.4521 29.0822V35.7662C19.4521 36.0422 19.2301 36.2642 18.9541 36.2642C18.6781 36.2642 18.4561 36.0422 18.4561 35.7662V29.0822C18.4561 22.7162 23.6341 17.5322 30.0061 17.5322C36.3781 17.5322 41.5561 22.7102 41.5561 29.0822V35.7662C41.5561 39.8762 38.2081 43.2242 34.0981 43.2242H34.0861Z" fill="#0044CC"/>
<path d="M27.714 41.0522C27.714 40.1222 28.47 39.3662 29.4 39.3662H32.28V42.7262H29.4C28.47 42.7262 27.714 41.9762 27.714 41.0522Z" fill="white"/>
<g opacity="0.8">
<path d="M32.286 39.3662H32.784C32.784 39.0962 32.556 38.8682 32.286 38.8682V39.3662ZM32.286 42.7262V43.2242H32.784V42.7262H32.286ZM29.406 39.8642H32.286V38.8682H29.406V39.8642ZM31.788 39.3662V42.7262H32.784V39.3662H31.788ZM32.286 42.2282H29.406V43.2242H32.286V42.2282ZM29.406 42.2282C28.746 42.2282 28.218 41.7002 28.218 41.0522H27.222C27.222 42.2462 28.2 43.2242 29.406 43.2242V42.2282ZM29.406 38.8682C28.2 38.8682 27.222 39.8462 27.222 41.0522H28.218C28.218 40.3922 28.746 39.8642 29.406 39.8642V38.8682Z" fill="#FF6B00"/>
</g>
<path d="M29.94 35.2981C28.866 35.2981 27.81 34.8301 26.52 33.8941C26.298 33.7321 26.244 33.4201 26.406 33.1981C26.568 32.9701 26.88 32.9281 27.102 33.0841C29.358 34.7221 30.498 34.7161 32.91 33.0781C33.138 32.9281 33.444 32.9821 33.6 33.2101C33.756 33.4381 33.696 33.7501 33.468 33.9001C32.1 34.8301 31.008 35.2981 29.934 35.2981H29.94Z" fill="#0044CC"/>
</g>
<defs>
<clipPath id="clip0_239_2932">
<rect width="60" height="60" fill="white"/>
</clipPath>
</defs>
</svg>
