<svg width="100" height="100" viewBox="0 0 100 100" fill="none" xmlns="http://www.w3.org/2000/svg">
<g clip-path="url(#clip0_239_1936)">
<path d="M100 0H0V100H100V0Z" fill="white"/>
<path d="M88.2299 89.06H11.7699C11.3099 89.06 10.9399 88.69 10.9399 88.23V11.77C10.9399 11.31 11.3099 10.94 11.7699 10.94H88.2199C88.6799 10.94 89.0499 11.31 89.0499 11.77V88.22C89.0499 88.68 88.6799 89.05 88.2199 89.05L88.2299 89.06ZM12.6099 87.4H87.3999V12.6H12.5999V87.39L12.6099 87.4Z" fill="#0044CC"/>
<path d="M50 68.12C41.72 68.12 34.99 61.39 34.99 53.11V49.55C34.99 41.27 41.72 34.54 50 34.54C58.28 34.54 65.01 41.27 65.01 49.55V53.11C65.01 61.39 58.28 68.12 50 68.12ZM50 36.21C42.64 36.21 36.65 42.2 36.65 49.56V53.12C36.65 60.48 42.64 66.47 50 66.47C57.36 66.47 63.35 60.48 63.35 53.12V49.56C63.35 42.2 57.36 36.21 50 36.21Z" fill="#0044CC"/>
<g opacity="0.1">
<path d="M36.7 43.35C36.7 39.68 39.6799 36.7 43.3499 36.7C47.0199 36.7 50 39.68 50 43.35V59.97C50 63.64 47.0199 66.62 43.3499 66.62C39.6799 66.62 36.7 63.64 36.7 59.97V43.35Z" fill="#0055FF"/>
</g>
<path d="M49.9999 74.93C54.5894 74.93 58.3099 71.9527 58.3099 68.28C58.3099 64.6073 54.5894 61.63 49.9999 61.63C45.4105 61.63 41.6899 64.6073 41.6899 68.28C41.6899 71.9527 45.4105 74.93 49.9999 74.93Z" fill="white"/>
<g opacity="0.8">
<path d="M31.5801 61.82H29.5301C25.6901 61.82 22.5701 58.7 22.5701 54.86C22.5701 51.02 25.6901 47.9 29.5301 47.9H31.5801C32.0401 47.9 32.4101 48.27 32.4101 48.73C32.4101 49.19 32.0401 49.56 31.5801 49.56H29.5301C26.6101 49.56 24.2301 51.94 24.2301 54.86C24.2301 57.78 26.6101 60.16 29.5301 60.16H31.5801C32.0401 60.16 32.4101 60.53 32.4101 60.99C32.4101 61.45 32.0401 61.82 31.5801 61.82Z" fill="#FF6B00"/>
</g>
<g opacity="0.8">
<path d="M70.4601 61.82H68.4101C67.9501 61.82 67.5801 61.45 67.5801 60.99C67.5801 60.53 67.9501 60.16 68.4101 60.16H70.4601C73.3801 60.16 75.7601 57.78 75.7601 54.86C75.7601 51.94 73.3801 49.56 70.4601 49.56H68.4101C67.9501 49.56 67.5801 49.19 67.5801 48.73C67.5801 48.27 67.9501 47.9 68.4101 47.9H70.4601C74.3001 47.9 77.4201 51.02 77.4201 54.86C77.4201 58.7 74.3001 61.82 70.4601 61.82Z" fill="#FF6B00"/>
</g>
<path d="M56.81 72.04H54.98C54.52 72.04 54.15 71.67 54.15 71.21C54.15 70.75 54.52 70.38 54.98 70.38H56.81C62.75 70.38 67.58 65.55 67.58 59.61V48.47C67.58 38.77 59.69 30.89 50 30.89C40.31 30.89 32.42 38.78 32.42 48.47V59.61C32.42 60.07 32.05 60.44 31.59 60.44C31.13 60.44 30.76 60.07 30.76 59.61V48.47C30.76 37.86 39.39 29.22 50.01 29.22C60.63 29.22 69.26 37.85 69.26 48.47V59.61C69.26 66.46 63.68 72.04 56.83 72.04H56.81Z" fill="#0044CC"/>
<path d="M46.1899 68.42C46.1899 66.87 47.4499 65.61 48.9999 65.61H53.7999V71.21H48.9999C47.4499 71.21 46.1899 69.96 46.1899 68.42Z" fill="white"/>
<g opacity="0.8">
<path d="M53.8101 65.61H54.6401C54.6401 65.16 54.2601 64.78 53.8101 64.78V65.61ZM53.8101 71.21V72.04H54.6401V71.21H53.8101ZM49.0101 66.44H53.8101V64.78H49.0101V66.44ZM52.9801 65.61V71.21H54.6401V65.61H52.9801ZM53.8101 70.38H49.0101V72.04H53.8101V70.38ZM49.0101 70.38C47.9101 70.38 47.0301 69.5 47.0301 68.42H45.3701C45.3701 70.41 47.0001 72.04 49.0101 72.04V70.38ZM49.0101 64.78C47.0001 64.78 45.3701 66.41 45.3701 68.42H47.0301C47.0301 67.32 47.9101 66.44 49.0101 66.44V64.78Z" fill="#FF6B00"/>
</g>
<path d="M49.8999 58.83C48.1099 58.83 46.3499 58.05 44.1999 56.49C43.8299 56.22 43.7399 55.7 44.0099 55.33C44.2799 54.95 44.7999 54.88 45.1699 55.14C48.9299 57.87 50.8299 57.86 54.8499 55.13C55.2299 54.88 55.7399 54.97 55.9999 55.35C56.2599 55.73 56.1599 56.25 55.7799 56.5C53.4999 58.05 51.6799 58.83 49.8899 58.83H49.8999Z" fill="#0044CC"/>
</g>
<defs>
<clipPath id="clip0_239_1936">
<rect width="100" height="100" fill="white"/>
</clipPath>
</defs>
</svg>
