<svg width="24" height="24" viewBox="0 0 24 24" fill="none" xmlns="http://www.w3.org/2000/svg">
<path d="M18.7277 3.84016C19.1182 3.44964 19.7514 3.44964 20.1419 3.84016L21.5561 5.25438C21.9467 5.6449 21.9467 6.27807 21.5561 6.66859L13.4256 14.7992C13.2682 14.9566 13.0628 15.0569 12.8419 15.0844L10.5896 15.3646C10.2662 15.4049 9.99144 15.1301 10.0317 14.8067L10.3119 12.5544C10.3394 12.3335 10.4397 12.1281 10.5971 11.9707L18.7277 3.84016Z" stroke="white" stroke-width="2" stroke-linecap="round"/>
<path d="M11 5H6C4.89543 5 4 5.89543 4 7V18C4 19.1046 4.89543 20 6 20H17C18.1046 20 19 19.1046 19 18V16" stroke="white" stroke-width="2" stroke-linecap="round"/>
</svg>
