<svg width="100" height="100" viewBox="0 0 100 100" fill="none" xmlns="http://www.w3.org/2000/svg">
<g clip-path="url(#clip0_239_1891)">
<path d="M100 0H0V100H100V0Z" fill="white"/>
<g opacity="0.2">
<path d="M58.31 43.35H35.04C34.1232 43.35 33.38 44.0932 33.38 45.01V61.63C33.38 62.5468 34.1232 63.29 35.04 63.29H58.31C59.2268 63.29 59.97 62.5468 59.97 61.63V45.01C59.97 44.0932 59.2268 43.35 58.31 43.35Z" fill="#0055FF"/>
</g>
<path d="M60.8 73.27C68.6038 73.27 74.93 66.9438 74.93 59.14C74.93 51.3362 68.6038 45.01 60.8 45.01C52.9963 45.01 46.67 51.3362 46.67 59.14C46.67 66.9438 52.9963 73.27 60.8 73.27Z" fill="white"/>
<path d="M45.0101 63.58H33.3801C30.1701 63.58 27.5601 60.97 27.5601 57.76V31.72C27.5601 31.26 27.9301 30.89 28.3901 30.89H43.0301C44.2701 30.89 45.4401 31.44 46.2301 32.4L49.3301 36.15H68.2701C68.7301 36.15 69.1001 36.52 69.1001 36.98V42.52C69.1001 42.98 68.7301 43.35 68.2701 43.35C67.8101 43.35 67.4401 42.98 67.4401 42.52V37.81H48.9401C48.6901 37.81 48.4601 37.7 48.3001 37.51L44.9501 33.46C44.4701 32.88 43.7701 32.55 43.0301 32.55H29.2201V57.76C29.2201 60.05 31.0801 61.92 33.3801 61.92H45.0101C45.4701 61.92 45.8401 62.29 45.8401 62.75C45.8401 63.21 45.4701 63.58 45.0101 63.58Z" fill="#0044CC"/>
<path d="M40.86 37.26H33.66C33.2 37.26 32.83 36.89 32.83 36.43C32.83 35.97 33.2 35.6 33.66 35.6H40.86C41.32 35.6 41.69 35.97 41.69 36.43C41.69 36.89 41.32 37.26 40.86 37.26Z" fill="#0044CC"/>
<path d="M50 94.04C49.86 94.04 49.71 94 49.58 93.93L12.16 72.32C11.9 72.17 11.74 71.9 11.74 71.6V28.39C11.74 28.09 11.9 27.82 12.16 27.67L49.58 6.06999C49.84 5.91999 50.15 5.91999 50.41 6.06999L87.83 27.68C88.09 27.83 88.25 28.1 88.25 28.4V71.61C88.25 71.91 88.09 72.18 87.83 72.33L50.41 93.94C50.28 94.01 50.14 94.05 49.99 94.05L50 94.04ZM13.41 71.12L50 92.25L86.59 71.12V28.87L50 7.74999L13.41 28.87V71.12Z" fill="#0044CC"/>
<path d="M60.0001 69.94C59.6301 69.94 59.2601 69.93 58.8901 69.89C55.7801 69.64 52.8401 68.29 50.6001 66.08C48.3801 63.86 47.0001 60.93 46.7301 57.82C46.4601 54.71 47.3001 51.58 49.1101 49.01C50.9201 46.44 53.5801 44.58 56.6201 43.77C59.6601 42.96 62.8901 43.24 65.7301 44.57C66.1501 44.76 66.3301 45.26 66.1301 45.68C65.9401 46.1 65.4401 46.28 65.0301 46.08C62.5401 44.92 59.7101 44.67 57.0501 45.38C54.3901 46.09 52.0601 47.72 50.4701 49.97C48.8901 52.22 48.1501 54.96 48.3901 57.68C48.6301 60.4 49.8301 62.97 51.7701 64.91C53.7301 66.84 56.3101 68.03 59.0301 68.24C61.7601 68.48 64.5 67.72 66.7701 66.13C69.01 64.55 70.64 62.22 71.34 59.55C71.9 57.41 71.8501 55.18 71.1801 53.08C71.0401 52.64 71.2801 52.18 71.7201 52.04C72.1501 51.9 72.6201 52.14 72.7601 52.58C73.5201 54.98 73.5801 57.53 72.9401 59.97C72.1401 63.01 70.2801 65.68 67.7201 67.48C65.4401 69.08 62.7401 69.93 60.0001 69.93V69.94Z" fill="#0044CC"/>
<path d="M59.98 47.1C59.52 47.1 59.15 46.73 59.15 46.27V42.11C59.15 41.65 59.52 41.28 59.98 41.28C60.44 41.28 60.81 41.65 60.81 42.11V46.27C60.81 46.73 60.44 47.1 59.98 47.1Z" fill="#0044CC"/>
<path d="M59.98 72.04C59.52 72.04 59.15 71.67 59.15 71.21V67.05C59.15 66.59 59.52 66.22 59.98 66.22C60.44 66.22 60.81 66.59 60.81 67.05V71.21C60.81 71.67 60.44 72.04 59.98 72.04Z" fill="#0044CC"/>
<path d="M74.54 57.5H70.38C69.92 57.5 69.55 57.13 69.55 56.67C69.55 56.21 69.92 55.84 70.38 55.84H74.54C75 55.84 75.37 56.21 75.37 56.67C75.37 57.13 75 57.5 74.54 57.5Z" fill="#0044CC"/>
<path d="M49.59 57.5H45.43C44.97 57.5 44.6 57.13 44.6 56.67C44.6 56.21 44.97 55.84 45.43 55.84H49.59C50.05 55.84 50.42 56.21 50.42 56.67C50.42 57.13 50.05 57.5 49.59 57.5Z" fill="#0044CC"/>
<g opacity="0.8">
<path d="M59.97 63.02C56.46 63.02 53.6 60.16 53.6 56.65C53.6 53.14 56.46 50.28 59.97 50.28C63.48 50.28 66.34 53.14 66.34 56.65C66.34 60.16 63.48 63.02 59.97 63.02ZM59.97 51.94C57.37 51.94 55.26 54.05 55.26 56.65C55.26 59.25 57.37 61.36 59.97 61.36C62.57 61.36 64.68 59.25 64.68 56.65C64.68 54.05 62.57 51.94 59.97 51.94Z" fill="#FF6B00"/>
</g>
</g>
<defs>
<clipPath id="clip0_239_1891">
<rect width="100" height="100" fill="white"/>
</clipPath>
</defs>
</svg>
