<svg width="60" height="60" viewBox="0 0 60 60" fill="none" xmlns="http://www.w3.org/2000/svg">
<g clip-path="url(#clip0_239_2625)">
<path d="M60 0H0V60H60V0Z" fill="white"/>
<path d="M52.938 53.436H7.06197C6.78597 53.436 6.56396 53.214 6.56396 52.938V7.06197C6.56396 6.78597 6.78597 6.56396 7.06197 6.56396H52.932C53.208 6.56396 53.43 6.78597 53.43 7.06197V52.932C53.43 53.208 53.208 53.43 52.932 53.43L52.938 53.436ZM7.56596 52.44H52.44V7.55997H7.55997V52.434L7.56596 52.44Z" fill="#0044CC"/>
<path fill-rule="evenodd" clip-rule="evenodd" d="M29.52 27.708H42.96V41.16L39.258 37.164H33.504C31.302 37.164 29.514 35.376 29.514 33.174V27.708H29.52Z" fill="white"/>
<path d="M42.966 27.708V27.21C43.248 27.21 43.464 27.438 43.464 27.708H42.966ZM29.526 27.708H29.028C29.028 27.438 29.25 27.21 29.526 27.21V27.708ZM42.966 41.16H43.464C43.464 41.358 43.332 41.55 43.146 41.616C42.954 41.694 42.738 41.646 42.6 41.484L42.966 41.154V41.16ZM39.264 37.164V36.666C39.402 36.666 39.546 36.726 39.63 36.828L39.264 37.17V37.164ZM42.966 28.206H29.526V27.21H42.966V28.206ZM42.468 36.432V27.708H43.464V36.432H42.468ZM42.468 37.158V36.432H43.464V37.158H42.468ZM42.468 41.154V37.158H43.464V41.154H42.468ZM39.636 36.816L43.338 40.812L42.6 41.478L38.91 37.488L39.636 36.81V36.816ZM33.51 36.654H39.264V37.65H33.51V36.654ZM30.018 33.162C30.018 35.088 31.584 36.654 33.51 36.654V37.65C31.026 37.65 29.022 35.634 29.022 33.162H30.018ZM30.018 27.696V33.162H29.022V27.696H30.018Z" fill="#0044CC"/>
<g opacity="0.1">
<path fill-rule="evenodd" clip-rule="evenodd" d="M29.004 28.0081H42.444V41.4481L38.742 37.4521H32.988C30.786 37.4521 28.998 35.6701 28.998 33.4621V28.0081H29.004Z" fill="#0055FF"/>
</g>
<path fill-rule="evenodd" clip-rule="evenodd" d="M21.0241 20.0281C18.8221 20.0281 17.0341 21.8161 17.0341 24.0181V39.2341L22.3201 33.5221H32.2501C34.4521 33.5221 36.2401 31.7341 36.2401 29.5321V20.0281H21.0241Z" fill="white"/>
<path d="M17.034 39.2339H16.536C16.536 39.4439 16.668 39.6239 16.854 39.6899C17.046 39.7679 17.262 39.7199 17.4 39.5699L17.034 39.2279V39.2339ZM22.32 33.5219V33.0239C22.182 33.0239 22.038 33.0839 21.954 33.1859L22.32 33.5279V33.5219ZM36.24 20.0279H36.738C36.738 19.7459 36.516 19.5299 36.24 19.5299V20.0279ZM17.532 24.0179C17.532 22.0919 19.098 20.5259 21.024 20.5259V19.5299C18.54 19.5299 16.536 21.5339 16.536 24.0179H17.532ZM17.532 32.4839V24.0179H16.536V32.4839H17.532ZM17.532 33.5219V32.4839H16.536V33.5219H17.532ZM17.532 39.2339V33.5219H16.536V39.2339H17.532ZM21.948 33.1799L16.662 38.8919L17.4 39.5699L22.674 33.8579L21.948 33.1799ZM32.25 33.0179H22.32V34.0139H32.25V33.0179ZM35.742 29.5259C35.742 31.4579 34.176 33.0179 32.25 33.0179V34.0139C34.722 34.0139 36.738 32.0099 36.738 29.5259H35.742ZM35.742 20.0219V29.5259H36.738V20.0219H35.742ZM21.024 20.5199H36.24V19.5239H21.024V20.5199Z" fill="#0044CC"/>
<g opacity="0.8">
<path d="M23.178 27.5161C23.6551 27.5161 24.042 27.1293 24.042 26.6521C24.042 26.1749 23.6551 25.7881 23.178 25.7881C22.7008 25.7881 22.314 26.1749 22.314 26.6521C22.314 27.1293 22.7008 27.5161 23.178 27.5161Z" fill="#FF6B00"/>
</g>
<g opacity="0.8">
<path d="M27.0181 27.5161C27.4952 27.5161 27.8821 27.1293 27.8821 26.6521C27.8821 26.1749 27.4952 25.7881 27.0181 25.7881C26.5409 25.7881 26.1541 26.1749 26.1541 26.6521C26.1541 27.1293 26.5409 27.5161 27.0181 27.5161Z" fill="#FF6B00"/>
</g>
<g opacity="0.8">
<path d="M30.87 27.5161C31.3472 27.5161 31.734 27.1293 31.734 26.6521C31.734 26.1749 31.3472 25.7881 30.87 25.7881C30.3928 25.7881 30.006 26.1749 30.006 26.6521C30.006 27.1293 30.3928 27.5161 30.87 27.5161Z" fill="#FF6B00"/>
</g>
</g>
<defs>
<clipPath id="clip0_239_2625">
<rect width="60" height="60" fill="white"/>
</clipPath>
</defs>
</svg>
