<svg width="32" height="32" viewBox="0 0 32 32" fill="none" xmlns="http://www.w3.org/2000/svg">
<g clip-path="url(#clip0_106_2817)">
<path d="M32 16C32 7.16344 24.8366 0 16 0C7.16344 0 0 7.16344 0 16C0 24.8366 7.16344 32 16 32C24.8366 32 32 24.8366 32 16Z" fill="#3B3FB5"/>
<path d="M21.4674 14.8397C21.4674 14.8397 23.2704 12.9184 23.2622 10.9222C23.2491 7.82338 20.4453 6.65237 20.4453 6.65237C18.1074 5.43569 14.5391 6.29356 14.5441 6.29519C8.92339 7.59016 6.61015 11.8648 7.05311 13.7812C7.21717 14.4906 7.78482 15.6111 9.02346 15.6356C9.26463 15.6404 9.45166 15.5719 9.51728 15.51C9.71908 15.3208 9.6272 15.0517 9.58455 14.9359C9.2876 14.1041 9.63048 11.2679 13.878 9.67449C16.649 8.63559 18.7653 9.10693 19.4577 10.4949L19.4642 10.5112C20.4108 13.0146 16.5882 15.735 16.5882 15.735C17.3905 15.8378 19.9777 16.0645 20.424 18.0852C20.6389 19.0605 20.3649 20.2951 18.8884 21.0535C17.5611 21.7336 13.9715 21.8674 13.9715 21.8674C13.9715 21.8674 13.9863 14.2525 13.9715 12.434C13.9699 12.1975 13.8025 12.1242 13.7845 12.1111C13.6303 12.0165 13.4711 12.0801 13.4465 12.0899C12.5097 12.4911 11.7157 13.4028 11.3236 14.2819C11.0824 14.8217 10.9544 15.4415 10.9331 16.1787C10.92 16.6321 10.9036 24.7802 10.9036 24.7802C10.9036 24.896 10.9987 24.9906 11.1152 24.9906C11.1152 24.9906 18.6488 25.2434 21.5576 23.1281C24.3926 21.0666 25.244 16.6728 21.4674 14.838V14.8397Z" fill="#FFC600"/>
</g>
<defs>
<clipPath id="clip0_106_2817">
<rect width="32" height="32" fill="white"/>
</clipPath>
</defs>
</svg>
