<svg width="60" height="60" viewBox="0 0 60 60" fill="none" xmlns="http://www.w3.org/2000/svg">
<g clip-path="url(#clip0_239_2948)">
<path d="M60 0H0V60H60V0Z" fill="white"/>
<path d="M52.938 53.436H7.06197C6.78597 53.436 6.56396 53.214 6.56396 52.938V7.06197C6.56396 6.78597 6.78597 6.56396 7.06197 6.56396H52.932C53.208 6.56396 53.43 6.78597 53.43 7.06197V52.932C53.43 53.208 53.208 53.43 52.932 53.43L52.938 53.436ZM7.56596 52.44H52.44V7.55997H7.55997V52.434L7.56596 52.44Z" fill="#0044CC"/>
<g opacity="0.2">
<path d="M15.042 20.5859L30 13.0439L44.958 20.5859V32.0819C43.902 37.7939 40.392 42.7739 35.352 45.6719L30 48.7559L23.832 45.4139C18.858 42.7139 15.558 37.7159 15.042 32.0819V20.5859Z" fill="#0055FF"/>
</g>
<path d="M30 49.2599C29.916 49.2599 29.838 49.2419 29.76 49.1999L23.592 45.8579C18.462 43.0679 15.078 37.9379 14.538 32.1299V20.5859C14.538 20.3999 14.64 20.2259 14.808 20.1419L29.766 12.5999C29.91 12.5279 30.072 12.5279 30.216 12.5999L45.174 20.1419C45.342 20.2259 45.45 20.3999 45.45 20.5859V32.0819C44.358 38.0459 40.77 43.1279 35.592 46.1039L30.24 49.1879C30.162 49.2299 30.078 49.2539 29.994 49.2539L30 49.2599ZM15.54 20.8979V32.0879C16.044 37.5179 19.23 42.3539 24.072 44.9819L29.994 48.1919L35.106 45.2459C40.026 42.4139 43.44 37.5839 44.472 31.9979V20.8979L30.006 13.6079L15.546 20.8979H15.54Z" fill="#0044CC"/>
<path d="M19.032 34.488L17.04 38.478L18.036 39.972L21.03 43.464L27.012 46.956L30.006 48.45L31.998 47.454L38.976 42.966L42.468 39.474L41.97 37.482L39.978 33.99L36.984 31.998H33.99L29.502 32.496L25.512 31.5L21.522 32.496L19.026 34.488H19.032Z" fill="white"/>
<g opacity="0.8">
<path d="M26.754 41.4002C26.496 41.6222 26.202 41.7902 25.884 41.9102C25.56 42.0302 25.23 42.0902 24.882 42.0902C24.618 42.0902 24.36 42.0602 24.114 41.9882C23.868 41.9162 23.64 41.8202 23.424 41.7002C23.214 41.5682 23.016 41.4182 22.842 41.2442C22.668 41.0642 22.512 40.8782 22.386 40.6562C22.26 40.4462 22.164 40.2182 22.092 39.9662C22.026 39.7142 21.99 39.4682 21.99 39.1982C21.99 38.9282 22.026 38.6822 22.092 38.4302C22.164 38.1902 22.26 37.9622 22.386 37.7402C22.512 37.5302 22.668 37.3322 22.842 37.1522C23.016 36.9722 23.214 36.8222 23.424 36.7022C23.64 36.5702 23.868 36.4742 24.114 36.4142C24.36 36.3422 24.618 36.3062 24.882 36.3062C25.23 36.3062 25.56 36.3662 25.884 36.4862C26.208 36.6062 26.496 36.7742 26.754 37.0022L26.16 37.9682C25.998 37.8002 25.806 37.6562 25.578 37.5722C25.356 37.4702 25.122 37.4222 24.876 37.4222C24.63 37.4222 24.396 37.4702 24.18 37.5602C23.964 37.6622 23.778 37.7822 23.616 37.9382C23.454 38.1002 23.328 38.2862 23.238 38.5082C23.142 38.7302 23.1 38.9582 23.1 39.1982C23.1 39.4382 23.148 39.6782 23.238 39.8882C23.328 40.1102 23.46 40.2962 23.616 40.4582C23.778 40.6202 23.964 40.7462 24.18 40.8362C24.396 40.9262 24.624 40.9742 24.876 40.9742C25.128 40.9742 25.356 40.9262 25.578 40.8362C25.8 40.7342 25.992 40.6082 26.16 40.4282L26.754 41.4062V41.4002ZM28.524 37.5002V39.7322H29.64C29.79 39.7322 29.94 39.7022 30.072 39.6542C30.21 39.5942 30.324 39.5162 30.426 39.4022C30.528 39.3002 30.606 39.1802 30.666 39.0542C30.726 38.9162 30.756 38.7662 30.756 38.6162C30.756 38.4662 30.726 38.3162 30.666 38.1902C30.612 38.0522 30.528 37.9322 30.426 37.8302C30.324 37.7282 30.204 37.6502 30.072 37.5902C29.94 37.5302 29.79 37.5002 29.64 37.5002H28.524ZM28.524 41.9702H27.408V36.3842H29.646C29.85 36.3842 30.048 36.4142 30.24 36.4622C30.432 36.5102 30.606 36.5942 30.768 36.6902C30.936 36.7802 31.086 36.9002 31.218 37.0382C31.356 37.1702 31.47 37.3262 31.566 37.4882C31.662 37.6562 31.74 37.8362 31.794 38.0282C31.848 38.2202 31.878 38.4062 31.878 38.6162C31.878 38.9282 31.818 39.2162 31.704 39.4862C31.59 39.7562 31.428 39.9962 31.224 40.1942C31.02 40.4042 30.786 40.5602 30.51 40.6742C30.24 40.7942 29.952 40.8542 29.646 40.8542H28.53V41.9702H28.524ZM38.004 39.1982C38.004 39.4682 37.968 39.7142 37.902 39.9662C37.836 40.2182 37.74 40.4462 37.614 40.6562C37.488 40.8782 37.338 41.0642 37.164 41.2442C36.99 41.4242 36.792 41.5742 36.582 41.7002C36.366 41.8202 36.138 41.9222 35.892 41.9882C35.646 42.0602 35.388 42.0902 35.124 42.0902C34.86 42.0902 34.602 42.0602 34.356 41.9882C34.11 41.9162 33.882 41.8202 33.666 41.7002C33.45 41.5682 33.258 41.4182 33.084 41.2442C32.91 41.0642 32.754 40.8782 32.628 40.6562C32.502 40.4462 32.406 40.2182 32.334 39.9662C32.268 39.7142 32.232 39.4682 32.232 39.1982C32.232 38.9282 32.268 38.6822 32.334 38.4302C32.406 38.1902 32.502 37.9622 32.628 37.7402C32.754 37.5302 32.91 37.3322 33.084 37.1642C33.258 36.9842 33.456 36.8342 33.666 36.7082C33.882 36.5882 34.11 36.4862 34.356 36.4202C34.602 36.3482 34.86 36.3182 35.124 36.3182C35.388 36.3182 35.646 36.3482 35.892 36.4202C36.138 36.4922 36.366 36.5882 36.582 36.7082C36.792 36.8402 36.99 36.9902 37.164 37.1642C37.338 37.3322 37.494 37.5302 37.614 37.7402C37.74 37.9622 37.836 38.1902 37.902 38.4302C37.974 38.6822 38.004 38.9402 38.004 39.1982ZM36.894 39.1982C36.894 38.9582 36.846 38.7302 36.756 38.5082C36.666 38.2862 36.534 38.1002 36.378 37.9382C36.222 37.7762 36.03 37.6562 35.814 37.5602C35.598 37.4702 35.37 37.4222 35.124 37.4222C34.878 37.4222 34.644 37.4702 34.428 37.5602C34.212 37.6622 34.026 37.7822 33.864 37.9382C33.702 38.1002 33.576 38.2862 33.48 38.5082C33.39 38.7302 33.342 38.9582 33.342 39.1982C33.342 39.4382 33.39 39.6782 33.48 39.8882C33.576 40.1102 33.702 40.2962 33.864 40.4582C34.026 40.6202 34.212 40.7462 34.428 40.8362C34.644 40.9262 34.872 40.9742 35.124 40.9742C35.376 40.9742 35.598 40.9262 35.814 40.8362C36.03 40.7462 36.222 40.6142 36.378 40.4582C36.54 40.2962 36.666 40.1102 36.756 39.8882C36.852 39.6782 36.894 39.4502 36.894 39.1982Z" fill="#FF6B00"/>
</g>
<path fill-rule="evenodd" clip-rule="evenodd" d="M25.074 23.9582C25.074 21.2342 27.282 19.0322 30 19.0322C32.718 19.0322 34.926 21.2342 34.926 23.9582V24.7082C35.538 24.8762 35.982 25.4162 35.982 26.0462C35.982 26.8262 35.31 27.4502 34.488 27.4502H34.452C33.66 29.1062 31.962 30.2522 30.006 30.2522C28.05 30.2522 26.352 29.1062 25.56 27.4502H25.524C24.696 27.4502 24.03 26.8202 24.03 26.0462C24.03 25.4162 24.474 24.8822 25.086 24.7082V23.9582H25.074Z" fill="white"/>
<path d="M30 30.7502C28.02 30.7502 26.184 29.6522 25.236 27.9242C24.252 27.7802 23.52 26.9942 23.52 26.0402C23.52 25.3322 23.94 24.6842 24.576 24.3662V23.9582C24.576 20.9642 27.012 18.5342 30 18.5342C32.988 18.5342 35.424 20.9702 35.424 23.9582V24.3662C36.06 24.6902 36.48 25.3322 36.48 26.0402C36.48 27.0002 35.73 27.7982 34.758 27.9302C33.81 29.6522 31.974 30.7502 29.994 30.7502H30ZM30 19.5302C27.558 19.5302 25.572 21.5162 25.572 23.9582V25.0862L25.206 25.1882C24.798 25.3022 24.516 25.6502 24.516 26.0462C24.516 26.5442 24.966 26.9522 25.512 26.9522H25.824L25.998 27.2342C26.73 28.7642 28.302 29.7542 30 29.7542C31.698 29.7542 33.264 28.7642 34.002 27.2342L34.14 26.9522H34.452C35.04 26.9522 35.49 26.5442 35.49 26.0462C35.49 25.6562 35.208 25.3022 34.8 25.1882L34.434 25.0862V23.9582C34.434 21.5162 32.448 19.5302 30.006 19.5302H30Z" fill="#0044CC"/>
<path d="M42.4621 38.946C42.2221 38.946 42.0061 38.772 41.9701 38.526L41.9521 38.418C41.6341 36.306 40.4041 34.446 38.5921 33.312C36.7801 32.184 34.5781 31.908 32.5441 32.544C30.8941 33.06 29.0821 33.042 27.4381 32.49C25.3441 31.794 23.0761 32.076 21.2161 33.264C19.3741 34.44 18.1681 36.348 17.9161 38.508C17.8861 38.778 17.6341 38.97 17.3641 38.946C17.0881 38.916 16.8961 38.664 16.9261 38.394C17.2141 35.934 18.5821 33.762 20.6821 32.424C22.8001 31.074 25.3801 30.756 27.7561 31.548C29.2081 32.034 30.8041 32.046 32.2501 31.596C34.5601 30.87 37.0621 31.188 39.1201 32.472C41.1781 33.756 42.5701 35.868 42.9361 38.274L42.9541 38.382C42.9961 38.652 42.8101 38.91 42.5401 38.952C42.5161 38.952 42.4861 38.952 42.4621 38.952V38.946Z" fill="#0044CC"/>
<path d="M30 49.2599C29.916 49.2599 29.838 49.2419 29.76 49.1999L23.592 45.8579C18.462 43.0679 15.078 37.9379 14.538 32.1299V20.5859C14.538 20.3999 14.64 20.2259 14.808 20.1419L29.766 12.5999C29.91 12.5279 30.072 12.5279 30.216 12.5999L45.174 20.1419C45.342 20.2259 45.45 20.3999 45.45 20.5859V32.0819C44.358 38.0459 40.77 43.1279 35.592 46.1039L30.24 49.1879C30.162 49.2299 30.078 49.2539 29.994 49.2539L30 49.2599ZM15.54 20.8979V32.0879C16.044 37.5179 19.23 42.3539 24.072 44.9819L29.994 48.1919L35.106 45.2459C40.026 42.4139 43.44 37.5839 44.472 31.9979V20.8979L30.006 13.6079L15.546 20.8979H15.54Z" fill="#0044CC"/>
</g>
<defs>
<clipPath id="clip0_239_2948">
<rect width="60" height="60" fill="white"/>
</clipPath>
</defs>
</svg>
