<svg width="120" height="42" viewBox="0 0 120 42" fill="none" xmlns="http://www.w3.org/2000/svg">
<path d="M12.346 7.63816C10.9583 6.69288 9.1781 7.07848 8.24451 8.49944C7.46365 9.68661 6.2863 9.83437 5.83013 9.83437C4.34528 9.83437 3.32876 8.78788 3.02734 7.70597C3.0243 7.69484 3.02228 7.68674 3.01924 7.67561C3.01621 7.66346 3.01216 7.65132 3.00913 7.63917C2.89079 7.18779 2.86145 6.9712 2.86145 6.49148C2.86145 3.90359 5.51455 1.02119 9.3369 1.02119C13.1593 1.02119 15.4917 4.00277 16.0693 5.65955C16.0591 5.63121 16.05 5.60085 16.0399 5.5715C14.9283 2.33082 11.8565 0 8.24046 0C3.68985 0 0 3.69206 0 8.24743C0 12.319 2.93327 15.8046 7.00343 15.8046C10.2503 15.8046 12.433 13.9829 13.4334 11.4719C13.9816 10.0995 13.5932 8.48527 12.346 7.63816Z" fill="#003668"/>
<path d="M16.1198 5.82046C15.6374 4.20417 13.3808 1.02118 9.33689 1.02118C5.51353 1.02118 2.86145 3.90257 2.86145 6.49147C2.86145 6.9722 2.89078 7.18778 3.00811 7.63916C2.95855 7.44181 2.93225 7.24344 2.93225 7.05013C2.93225 4.35396 5.62884 2.48667 8.40128 2.48667C12.1559 2.48667 15.1984 5.53202 15.1984 9.28683C15.1984 12.231 13.5052 14.7784 11.0443 16.004H11.0453C14.2162 14.8563 16.4819 11.817 16.4819 8.24742C16.4819 7.40234 16.3676 6.65745 16.1188 5.82046" fill="#E6002D"/>
<path d="M24.941 6.42172C24.941 6.71927 24.8813 6.9986 24.7629 7.25972C24.6436 7.52084 24.4838 7.75361 24.2815 7.95502C24.0731 8.15136 23.8344 8.30722 23.5643 8.4226C23.2943 8.53899 23.001 8.59668 22.6864 8.59668C22.3718 8.59668 22.0876 8.53899 21.8175 8.4226C21.5475 8.30722 21.3077 8.15035 21.1004 7.95502C20.892 7.7526 20.7302 7.52084 20.6149 7.25972C20.4986 6.9986 20.4409 6.71927 20.4409 6.42172C20.4409 6.12417 20.4986 5.84483 20.6149 5.58372C20.7312 5.3226 20.893 5.09083 21.1004 4.88842C21.3088 4.69208 21.5475 4.53622 21.8175 4.42084C22.0876 4.30445 22.3779 4.24676 22.6864 4.24676C22.9949 4.24676 23.2933 4.30445 23.5643 4.42084C23.8344 4.53723 24.0741 4.69309 24.2815 4.88842C24.4838 5.09083 24.6436 5.3226 24.7629 5.58372C24.8813 5.84585 24.941 6.12518 24.941 6.42172ZM20.8951 11.9851V9.32841H21.8752V11.1117H27.409V11.9851H20.8951ZM23.9962 6.42982C23.9962 6.25169 23.9608 6.08368 23.889 5.9258C23.8182 5.76792 23.7252 5.62724 23.6129 5.50275C23.4885 5.3894 23.3489 5.2973 23.1941 5.22645C23.0394 5.15561 22.8735 5.11917 22.6955 5.11917C22.5175 5.11917 22.3587 5.1546 22.2009 5.22645C22.0431 5.29831 21.9025 5.39041 21.7781 5.50275C21.6648 5.62724 21.5728 5.76893 21.502 5.9258C21.4301 6.08368 21.3947 6.25169 21.3947 6.42982C21.3947 6.60794 21.4301 6.77493 21.502 6.92877C21.5728 7.08362 21.6648 7.22025 21.7781 7.33866C21.9025 7.45809 22.0441 7.5512 22.2009 7.61901C22.3587 7.68783 22.5235 7.72123 22.6955 7.72123C22.8674 7.72123 23.0404 7.68682 23.1941 7.61901C23.3489 7.5512 23.4885 7.45708 23.6129 7.33866C23.7262 7.22025 23.8182 7.08362 23.889 6.92877C23.9608 6.77392 23.9962 6.60794 23.9962 6.42982ZM26.3489 9.28287V4.19211H27.3381V9.28287H26.3489Z" fill="#595757"/>
<path d="M28.6126 5.55633V4.68291H32.4977V5.55633H30.8935L32.6757 10.8799L31.8382 11.1298L30.5819 7.3052L29.3348 11.1926L28.47 10.9426L30.2613 5.55734H28.6126V5.55633ZM34.8766 4.19205H35.8214V12.145H34.8766V8.40938H33.9592V12.1004H33.0418V4.20116H33.9592V7.50053H34.8766V4.19205Z" fill="#595757"/>
<path d="M40.3122 11.1025H39.3675V5.57455H36.9349V4.68291H40.3122V11.1025ZM43.199 4.19205H44.1437V12.145H43.199V8.31121H42.2816V12.1004H41.3642V4.20116H42.2816V7.4641H43.199V4.19205Z" fill="#595757"/>
<path d="M45.3736 4.36104H46.3537V5.18993H48.5455V4.36104H49.5075V7.74948H45.3726V4.36104H45.3736ZM45.6497 8.3375H51.7802V10.5135H46.6389V11.1825H51.8784V11.985H45.6497V9.77364H50.8001V9.11376H45.6497V8.3375ZM48.5455 5.99251H46.3537V6.955H48.5455V5.99251ZM51.7802 5.47534H52.9212V6.43884H51.7802V7.96303H50.8001V4.19101H51.7802V5.47534Z" fill="#595757"/>
<path d="M60.9685 8.27582H53.6616V7.46413H60.9685V8.27582ZM54.1603 4.29025H60.4698V5.09283H59.4179V6.12718H60.4698V6.92065H54.1603V6.12718H55.2031V5.09283H54.1603V4.29025ZM54.2493 8.76668H60.3798V10.7463H55.2203V11.2007H60.487V12.0124H54.2493V9.97915H59.3997V9.55104H54.2493V8.76668ZM58.4641 5.09283H56.165V6.12718H58.4641V5.09283Z" fill="#595757"/>
<path d="M70.6908 4.29025H77.0003V5.13736H75.9484V6.33263H77.0003V7.17063H74.3361V7.90135H77.5V8.75757H70.1931V7.90135H73.3479V7.17063H70.6928V6.33263H71.7356V5.13736H70.6928V4.29025H70.6908ZM70.7798 9.3547H76.9103V12.0114H70.7798V9.3547ZM75.9302 10.1927H71.7508V11.1552H75.9302V10.1927ZM74.9946 5.13736H72.6955V6.33263H74.9946V5.13736Z" fill="#595757"/>
<path d="M65.7194 8.50144H62.1641V6.0765H64.6766V5.28303H62.1641V4.44503H65.6304V6.87908H63.1088V7.69987H65.7194V8.50245V8.50144ZM68.1257 4.21225H69.0795V8.65224H68.1257V6.81532H67.3054V8.60771H66.3789V4.22136H67.3054V5.89736H68.1257V4.21225ZM66.0936 8.82227L69.2929 11.5599L68.6425 12.2461L66.0936 10.0347L63.5356 12.2461L62.8761 11.5599L66.0926 8.82227H66.0936Z" fill="#595757"/>
<path d="M86.1521 28.4323H83.2383C83.108 28.4323 83.0023 28.5373 83.0023 28.6669V41.0027C83.0023 41.1322 83.108 41.2372 83.2383 41.2372H86.1521C86.2825 41.2372 86.3882 41.1322 86.3882 41.0027V28.6669C86.3882 28.5373 86.2825 28.4323 86.1521 28.4323Z" fill="#3B3FB5"/>
<path d="M101.933 28.0974C101.874 28.0818 101.813 28.0646 101.758 28.0508C101.626 28.0197 101.492 27.9904 101.357 27.968C101.345 27.9663 101.334 27.9645 101.322 27.9628C101.267 27.9525 101.204 27.9438 101.137 27.9352C101.114 27.9318 101.09 27.9283 101.069 27.9266C101.064 27.9266 101.062 27.9266 101.057 27.9266C101.053 27.9266 101.05 27.9266 101.048 27.9266C100.819 27.9007 100.637 27.8921 100.522 27.8921C100.51 27.8921 100.502 27.8938 100.486 27.8938C100.47 27.8938 100.456 27.8956 100.441 27.8956C98.0936 27.8749 96.9591 29.1443 96.9105 29.1995C96.3155 28.6941 95.6129 28.3112 94.8374 28.0991C94.7784 28.0836 94.7177 28.0663 94.6622 28.0525C94.5303 28.0215 94.3968 27.9921 94.2614 27.9697C93.8798 27.9042 93.5883 27.8921 93.427 27.8904C93.4149 27.8904 93.4062 27.8921 93.3906 27.8921H93.3038C90.634 27.8921 88.4672 30.0429 88.4672 32.6991V41.1886C88.4672 41.5008 88.7708 41.7543 89.1437 41.7543H91.3313C91.5447 41.7543 91.7182 41.5819 91.7182 41.3697V32.9182C91.7182 31.854 92.5856 30.9916 93.656 30.9916C94.7264 30.9916 95.5938 31.854 95.5938 32.9165L95.6025 41.1765C95.6025 41.4939 95.8627 41.7526 96.1819 41.7526H98.2255C98.425 41.7526 98.6019 41.6508 98.7078 41.4973C98.7737 41.4025 98.8119 41.2886 98.8119 41.1645V32.9165C98.8119 31.8522 99.6793 30.9898 100.748 30.9898C101.818 30.9898 102.686 31.8522 102.686 32.9165V33.5908L102.696 41.1765C102.696 41.4939 102.956 41.7526 103.276 41.7526H105.513C105.727 41.7526 105.9 41.5801 105.9 41.368V33.2752C105.9 30.8001 104.218 28.7235 101.929 28.0939L101.933 28.0974Z" fill="#3B3FB5"/>
<path d="M31.9136 28.4292H29.3773C29.1639 28.4292 28.9905 28.6017 28.9905 28.8138V35.6337C28.9905 37.036 27.9079 38.183 26.5253 38.2968C26.1714 38.3002 25.5018 38.2968 25.5018 38.2968C24.1191 38.183 23.0366 37.036 23.0366 35.6337V28.8138C23.0366 28.6017 22.8631 28.4292 22.6497 28.4292H20.1134C19.9 28.4292 19.7266 28.6017 19.7266 28.8138V35.6337C19.7266 38.8211 22.3184 41.4135 25.5 41.5187H26.5236C29.7052 41.4118 32.297 38.8194 32.297 35.6337V28.8138C32.297 28.6017 32.1235 28.4292 31.9102 28.4292H31.9136Z" fill="#3B3FB5"/>
<path d="M72.2849 29.968C72.1825 28.602 70.8935 27.8413 69.5334 27.8327C67.9685 27.8206 66.5008 28.7037 65.6628 29.9508C65.0383 30.877 64.6895 31.9688 64.6548 33.0795L64.6462 33.2607C64.6462 33.2607 64.6427 34.0299 64.6462 35.1338H64.6427V40.8532C64.6427 41.0654 64.8162 41.2379 65.0296 41.2379H67.6874C67.9008 41.2379 68.0743 41.0654 68.0743 40.8532L68.05 34.8492C68.0552 33.6781 67.9425 32.3707 68.7995 31.441C69.5195 30.6597 70.4268 30.3371 71.4487 30.6079C71.6031 30.6493 71.7592 30.7252 71.9119 30.6924C72.2311 30.6286 72.3075 30.3112 72.2832 29.9697L72.2849 29.968Z" fill="#3B3FB5"/>
<path d="M62.6477 38.2267C62.6547 38.0439 62.6217 37.8662 62.5315 37.7075C62.469 37.5954 62.3806 37.4954 62.2643 37.4402C61.9711 37.2988 61.6346 37.5213 61.3744 37.6368C61.161 37.7317 60.958 37.8455 60.7464 37.9456C59.2735 38.6389 57.5838 38.8149 56.0311 38.275C55.45 38.0732 54.9417 37.6161 54.5965 37.1004C54.5114 36.9762 54.4368 36.8382 54.3796 36.6968C54.3466 36.6054 54.3015 36.5157 54.2842 36.4208C54.2703 36.3139 54.3015 36.2794 54.3657 36.2621C54.3987 36.2587 54.4438 36.2587 54.4941 36.2587C56.1179 36.2656 57.7451 36.2897 59.3741 36.2984C60.6909 36.3018 62.214 36.0966 62.8837 34.8116C63.9298 32.797 62.7449 30.2702 61.0465 29.0283C59.395 27.8244 57.0529 27.6347 55.1377 28.2711C52.4956 29.156 50.8094 31.8639 50.7937 34.5787C50.7764 37.1659 52.1642 39.5893 54.5132 40.807C56.0468 41.5935 58.0262 41.7367 59.6621 41.1934C60.4809 40.9208 61.2859 40.5155 61.8827 39.8825C62.2765 39.4651 62.6269 38.889 62.6512 38.2267H62.6477ZM54.6763 31.9933C54.9105 31.6966 55.1793 31.4913 55.5142 31.3189C56.0155 31.067 56.5828 30.9273 57.1414 30.9204C57.7608 30.9101 58.4269 30.9722 58.9664 31.2688C59.7037 31.6742 60.2624 32.3727 60.3057 32.9954C60.3092 33.0092 60.3092 33.0195 60.3092 33.0316C60.3127 33.1058 60.3023 33.1799 60.2693 33.2472C60.2155 33.3576 60.1028 33.4283 59.9848 33.4628C59.8217 33.5059 59.6465 33.499 59.4765 33.499L54.1367 33.5059C54.1367 32.5693 54.6745 31.9967 54.6745 31.9933H54.6763Z" fill="#3B3FB5"/>
<path d="M81.218 38.8586C80.9838 38.6551 80.6576 38.8345 80.3956 38.8724C80.0348 38.9207 79.66 38.9155 79.2992 38.8431C78.6469 38.712 78.0431 38.3498 77.6979 37.7686C77.4151 37.2994 77.3474 36.7423 77.3474 36.2007L77.337 34.4535V31.5437H80.0729C80.2829 31.5437 80.4581 31.3747 80.4581 31.1608V28.8168C80.4581 28.603 80.2829 28.4288 80.0729 28.4288H77.337V25.7657C77.337 25.5535 77.1618 25.3828 76.9484 25.3828H74.3183C74.1049 25.3828 73.9297 25.557 73.9297 25.7657V26.5936L73.9401 35.666C73.9835 36.9734 74.0182 38.2084 74.7052 39.364C74.8509 39.6089 75.0209 39.8383 75.2135 40.047C76.0202 40.918 77.1774 41.3579 78.3554 41.3837C79.4848 41.4096 80.5865 40.8421 81.192 39.8004C81.355 39.5192 81.5181 39.1122 81.2214 38.8569L81.218 38.8586Z" fill="#3B3FB5"/>
<path d="M50.1459 38.8586C49.9117 38.6551 49.5856 38.8345 49.3236 38.8724C48.9628 38.9207 48.588 38.9155 48.2272 38.8431C47.5748 38.712 46.9711 38.3498 46.6259 37.7686C46.3431 37.2994 46.2754 36.7423 46.2754 36.2007L46.265 34.4535V31.5437H49.0009C49.2108 31.5437 49.3861 31.3747 49.3861 31.1608V28.8168C49.3861 28.603 49.2108 28.4288 49.0009 28.4288H46.265V25.7657C46.265 25.5535 46.0898 25.3828 45.8764 25.3828H43.2463C43.0329 25.3828 42.8577 25.557 42.8577 25.7657V26.5936L42.8681 35.666C42.9114 36.9734 42.9461 38.2084 43.6332 39.364C43.7789 39.6089 43.9489 39.8383 44.1415 40.047C44.9482 40.918 46.1054 41.3579 47.2834 41.3837C48.4128 41.4096 49.5144 40.8421 50.1199 39.8004C50.283 39.5192 50.4461 39.1122 50.1494 38.8569L50.1459 38.8586Z" fill="#3B3FB5"/>
<path d="M41.5563 38.8586C41.3221 38.6551 40.996 38.8345 40.734 38.8724C40.3731 38.9207 39.9984 38.9155 39.6376 38.8431C38.9852 38.712 38.3815 38.3498 38.0363 37.7686C37.7535 37.2994 37.6858 36.7423 37.6858 36.2007L37.6754 34.4535V31.5437H40.4113C40.6212 31.5437 40.7965 31.3747 40.7965 31.1608V28.8168C40.7965 28.603 40.6212 28.4288 40.4113 28.4288H37.6754V25.7657C37.6754 25.5535 37.5002 25.3828 37.2868 25.3828H34.6567C34.4433 25.3828 34.2681 25.557 34.2681 25.7657V26.5936L34.2785 35.666C34.3218 36.9734 34.3565 38.2084 35.0436 39.364C35.1893 39.6089 35.3593 39.8383 35.5519 40.047C36.3586 40.918 37.5158 41.3579 38.6938 41.3837C39.8232 41.4096 40.9248 40.8421 41.5303 39.8004C41.6934 39.5192 41.8565 39.1122 41.5598 38.8569L41.5563 38.8586Z" fill="#3B3FB5"/>
<path d="M119.37 38.2267C119.377 38.0439 119.344 37.8662 119.254 37.7075C119.192 37.5954 119.103 37.4954 118.987 37.4402C118.694 37.2988 118.357 37.5213 118.097 37.6368C117.884 37.7317 117.681 37.8455 117.469 37.9456C115.996 38.6389 114.306 38.8149 112.754 38.275C112.173 38.0732 111.664 37.6161 111.319 37.1004C111.234 36.9762 111.16 36.8382 111.102 36.6968C111.069 36.6054 111.024 36.5157 111.007 36.4208C110.993 36.3139 111.024 36.2794 111.088 36.2621C111.121 36.2587 111.166 36.2587 111.217 36.2587C112.841 36.2656 114.468 36.2897 116.097 36.2984C117.414 36.3018 118.937 36.0966 119.606 34.8116C120.652 32.797 119.468 30.2702 117.769 29.0283C116.118 27.8244 113.776 27.6347 111.86 28.2711C109.218 29.156 107.532 31.8639 107.516 34.5787C107.499 37.1659 108.887 39.5893 111.236 40.807C112.769 41.5935 114.749 41.7367 116.385 41.1934C117.204 40.9208 118.009 40.5155 118.605 39.8825C118.999 39.4651 119.35 38.889 119.374 38.2267H119.37ZM111.399 31.9933C111.633 31.6966 111.902 31.4913 112.237 31.3189C112.738 31.067 113.305 30.9273 113.864 30.9204C114.483 30.9101 115.15 30.9722 115.689 31.2688C116.426 31.6742 116.985 32.3727 117.028 32.9954C117.032 33.0092 117.032 33.0195 117.032 33.0316C117.035 33.1058 117.025 33.1799 116.992 33.2472C116.938 33.3576 116.825 33.4283 116.707 33.4628C116.544 33.5059 116.369 33.499 116.199 33.499L110.859 33.5059C110.859 32.5693 111.397 31.9967 111.397 31.9933H111.399Z" fill="#3B3FB5"/>
<path d="M86.1451 21.4713C86.1451 20.6589 85.4824 20 84.6653 20C83.8481 20 83.1854 20.6589 83.1854 21.4713V23.3875L83.1576 23.3737L82.0612 22.7614C81.3482 22.363 80.4477 22.6165 80.047 23.3237C79.6462 24.0326 79.9013 24.9278 80.6126 25.3262L81.709 25.9385L83.9401 27.1838C83.9574 27.1924 83.9748 27.1993 83.9904 27.2079C84.0407 27.2338 84.091 27.2562 84.1431 27.2752C84.1968 27.2959 84.2506 27.3114 84.3044 27.3252C84.3304 27.3321 84.3565 27.339 84.3842 27.3442C84.4658 27.3597 84.5473 27.3666 84.6288 27.3683C84.6375 27.3683 84.6444 27.3701 84.6531 27.3701C84.6601 27.3701 84.6653 27.3683 84.6722 27.3683C84.7642 27.3683 84.8561 27.358 84.9481 27.3407C84.9498 27.3407 84.9515 27.3407 84.9533 27.3407C85.4512 27.2424 85.8953 26.894 86.074 26.3507C86.1365 26.1627 86.1503 25.9713 86.133 25.785L86.1434 22.72V21.4695L86.1451 21.4713Z" fill="#3B3FB5"/>
<path d="M15.2982 31.2549C15.2982 31.2549 17.2048 29.2231 17.1961 27.1119C17.1822 23.8348 14.2174 22.5964 14.2174 22.5964C11.7453 21.3097 7.97211 22.2169 7.97732 22.2186C2.03385 23.5881 -0.41224 28.1088 0.05616 30.1355C0.229641 30.8858 0.829887 32.0707 2.13967 32.0966C2.39469 32.1018 2.59246 32.0293 2.66185 31.9638C2.87523 31.7637 2.77808 31.4791 2.73298 31.3566C2.41898 30.477 2.78155 27.4776 7.27298 25.7924C10.2031 24.6937 12.441 25.1922 13.1731 26.66L13.18 26.6773C14.181 29.3248 10.1389 32.2018 10.1389 32.2018C10.9872 32.3105 13.723 32.5502 14.1949 34.6872C14.4221 35.7187 14.1324 37.0243 12.5711 37.8264C11.1676 38.5456 7.37187 38.687 7.37187 38.687C7.37187 38.687 7.38748 30.6339 7.37187 28.7108C7.37013 28.4607 7.19318 28.3831 7.1741 28.3693C7.01103 28.2692 6.84275 28.3365 6.81673 28.3469C5.82615 28.7712 4.9865 29.7353 4.57188 30.665C4.31686 31.2359 4.18155 31.8913 4.15899 32.6709C4.14511 33.1504 4.12777 41.7675 4.12777 41.7675C4.12777 41.89 4.22839 41.99 4.35156 41.99C4.35156 41.99 12.3178 42.2574 15.3936 40.0203C18.3914 37.8402 19.2918 33.1936 15.2982 31.2532V31.2549Z" fill="#3B3FB5"/>
<path fill-rule="evenodd" clip-rule="evenodd" d="M84.1369 5.13684C83.9544 5.3193 83.9544 5.61511 84.1369 5.79757L86.3393 8L84.1368 10.2025C83.9544 10.3849 83.9544 10.6807 84.1368 10.8632C84.3193 11.0456 84.6151 11.0456 84.7976 10.8632L87 8.66072L89.2024 10.8632C89.3849 11.0456 89.6807 11.0456 89.8632 10.8632C90.0456 10.6807 90.0456 10.3849 89.8632 10.2024L87.6608 8L89.8631 5.79761C90.0456 5.61515 90.0456 5.31933 89.8631 5.13688C89.6807 4.95442 89.3849 4.95442 89.2024 5.13688L87 7.33927L84.7976 5.13684C84.6151 4.95439 84.3193 4.95439 84.1369 5.13684Z" fill="#595757"/>
</svg>
