<svg width="109" height="26" viewBox="0 0 109 26" fill="none" xmlns="http://www.w3.org/2000/svg">
<g clip-path="url(#clip0_204_581)">
<path d="M108.8 5.66803C107.22 4.73555 104.841 4.29673 103.151 4.29673C98.6831 4.29673 96.6124 6.30798 96.6124 9.17858C96.6124 11.6469 98.4651 13.1462 100.481 13.9325C101.48 14.2981 102.588 14.6821 103.424 14.9198C104.768 15.3038 105.295 15.9437 105.295 16.8762C105.295 18.0464 104.477 18.7412 102.352 18.7412C100.899 18.7412 98.9918 18.1561 97.6296 17.3699L96.3581 20.2222C98.1018 21.2278 100.445 21.758 102.388 21.758C106.566 21.758 109 19.6554 109 16.7482C109 13.841 107.547 13.0182 105.912 12.3052C105.276 12.0492 104.096 11.6652 103.478 11.4824C101.389 10.8973 100.263 10.3671 100.263 8.97746C100.263 7.95355 100.935 7.14905 103.224 7.14905C104.877 7.14905 106.493 7.71585 107.601 8.3558L108.8 5.66803ZM91.6356 4.53442V18.3024H91.2178L86.3863 4.53442H79.8474V21.4472H83.3893V7.45988H83.8434L88.6204 21.4472H95.1593V4.53442H91.6356ZM78.6667 6.52739C77.2136 4.9001 74.8342 4.27844 72.6909 4.27844C67.7322 4.27844 64.717 7.25875 64.717 13C64.717 18.7412 67.042 21.7215 72.6546 21.7215C74.7434 21.7215 76.9412 21.2278 78.4306 20.3502L77.5951 17.5344C76.3963 18.1378 74.5981 18.54 72.9088 18.54C69.3851 18.54 68.4588 16.2728 68.4588 12.9634C68.4588 9.10545 70.1661 7.25875 72.8362 7.25875C74.4164 7.25875 75.7424 7.95355 76.6324 8.88604L78.6667 6.52739Z" fill="#636466"/>
<path d="M12.9143 26C20.0527 26 25.8287 20.1857 25.8287 13C25.8287 5.81435 20.0527 0 12.9143 0C5.77604 0 0 5.81435 0 13C0.0181636 20.1857 5.7942 26 12.9143 26Z" fill="#C00C3F"/>
<path d="M12.4058 7.29541V18.6864H16.0203V17.6808H13.4411V7.29541H12.4058Z" fill="white"/>
<path d="M8.80941 10.4037C9.6631 10.4037 10.3533 9.70891 10.3533 8.84956C10.3533 7.99021 9.6631 7.29541 8.80941 7.29541C7.95572 7.29541 7.2655 7.99021 7.2655 8.84956C7.2655 9.70891 7.95572 10.4037 8.80941 10.4037Z" fill="white"/>
<path d="M13.441 2.13926C13.3139 2.13926 13.0596 2.12097 12.9143 2.12097C6.95662 2.12097 2.10693 7.00283 2.10693 13C2.10693 15.9072 3.23308 18.6315 5.26741 20.6976C7.30173 22.7454 10.0263 23.8791 12.9143 23.8791C15.8023 23.8791 18.5087 22.7454 20.5612 20.6976C22.5955 18.6498 23.7217 15.9072 23.7217 13V12.5063H16.0203V13.512H22.7045V13.6582C22.3594 18.7778 18.1091 22.8551 12.9325 22.8551C10.3169 22.8551 7.86481 21.8312 6.01212 19.9663C4.14126 18.1196 3.1241 15.6329 3.1241 13C3.1241 10.3671 4.14126 7.89875 5.99395 6.03377C7.84664 4.16879 10.2987 3.14488 12.9143 3.14488C13.0233 3.14488 13.3139 3.14488 13.441 3.16317V2.13926Z" fill="white"/>
<path d="M52.1478 15.0112H55.3083V17.9733C54.727 18.1927 53.5827 18.4121 52.5111 18.4121C49.0236 18.4121 47.8612 16.6202 47.8612 13C47.8612 9.37973 48.9692 7.49647 52.4566 7.49647C54.4001 7.49647 55.5081 8.11813 56.4162 9.28831L58.832 7.05765C57.3608 4.9367 54.7815 4.29675 52.3658 4.29675C46.9348 4.29675 44.065 7.27706 44.065 12.9817C44.065 18.6863 46.6442 21.7215 52.3294 21.7215C54.945 21.7215 57.4879 21.045 58.8683 20.0759V11.8664H52.1296V15.0112H52.1478ZM35.5644 4.53445H31.6774V21.4472H43.6109V18.1561H35.5644V4.53445Z" fill="#636466"/>
</g>
<defs>
<clipPath id="clip0_204_581">
<rect width="109" height="26" fill="white"/>
</clipPath>
</defs>
</svg>
