<svg width="130" height="130" viewBox="0 0 130 130" fill="none" xmlns="http://www.w3.org/2000/svg">
<path d="M65 72C39.555 72 18.3785 90.9788 13.8812 116.048C12.906 121.485 17.4772 126 23 126H107C112.523 126 117.094 121.485 116.119 116.048C111.621 90.9788 90.445 72 65 72Z" fill="#D4DFFF"/>
<path d="M126 101C126 114.807 114.807 126 101 126C87.1929 126 76 114.807 76 101C76 87.1929 87.1929 76 101 76C114.807 76 126 87.1929 126 101Z" fill="#FCE4F0"/>
<path fill-rule="evenodd" clip-rule="evenodd" d="M101 78C88.2975 78 78 88.2975 78 101C78 113.703 88.2975 124 101 124C113.703 124 124 113.703 124 101C124 88.2975 113.703 78 101 78ZM74 101C74 86.0883 86.0883 74 101 74C115.912 74 128 86.0883 128 101C128 115.912 115.912 128 101 128C86.0883 128 74 115.912 74 101Z" fill="#FE65B1"/>
<path d="M105 89.4C105 91.8301 103.4 107 101 107C98.6 107 97 91.8301 97 89.4C97 86.9699 98.6 85 101 85C103.4 85 105 86.9699 105 89.4Z" fill="#FE64B1"/>
<path d="M104 114C104 115.657 102.657 117 101 117C99.3431 117 98 115.657 98 114C98 112.343 99.3431 111 101 111C102.657 111 104 112.343 104 114Z" fill="#FE64B1"/>
<path d="M91 42C91 56.3594 79.3594 68 65 68C50.6406 68 39 56.3594 39 42C39 27.6406 50.6406 16 65 16C79.3594 16 91 27.6406 91 42Z" fill="#D4DFFF"/>
<path fill-rule="evenodd" clip-rule="evenodd" d="M65 13.5C49.2182 13.5 36.5 26.0587 36.5 41.4583V51C36.5 52.3807 35.3807 53.5 34 53.5C32.6193 53.5 31.5 52.3807 31.5 51V41.4583C31.5 23.2146 46.5402 8.5 65 8.5C83.4598 8.5 98.5 23.2146 98.5 41.4583V53.5C98.5 60.4036 92.9036 66 86 66H61.5C59.0147 66 57 63.9853 57 61.5V59.5C57 57.0147 59.0147 55 61.5 55H69.5C71.9853 55 74 57.0147 74 59.5V61H86C90.1421 61 93.5 57.6421 93.5 53.5V41.4583C93.5 26.0587 80.7818 13.5 65 13.5ZM69 61V60H62V61H69Z" fill="#7D8AFF"/>
<path fill-rule="evenodd" clip-rule="evenodd" d="M33.4286 35.5C29.4912 35.5 26.5 38.5185 26.5 42C26.5 45.3011 29.8658 48.5 34 48.5C35.3807 48.5 36.5 49.6193 36.5 51C36.5 52.3807 35.3807 53.5 34 53.5C27.7196 53.5 21.5 48.64 21.5 42C21.5 35.5404 26.9515 30.5 33.4286 30.5H35C36.3807 30.5 37.5 31.6193 37.5 33C37.5 34.3807 36.3807 35.5 35 35.5H33.4286Z" fill="#7D8AFF"/>
<path d="M24 42C24 46.9706 28.7927 51 34 51V33C28.7927 33 24 37.0294 24 42Z" fill="#7D8AFF"/>
<path d="M107 42C107 46.9706 102.207 51 97 51V33C102.207 33 107 37.0294 107 42Z" fill="#7D8AFF"/>
<path fill-rule="evenodd" clip-rule="evenodd" d="M97.5714 35.5C101.509 35.5 104.5 38.5185 104.5 42C104.5 45.3011 101.134 48.5 97 48.5C95.6193 48.5 94.5 49.6193 94.5 51C94.5 52.3807 95.6193 53.5 97 53.5C103.28 53.5 109.5 48.64 109.5 42C109.5 35.5404 104.049 30.5 97.5714 30.5H96C94.6193 30.5 93.5 31.6193 93.5 33C93.5 34.3807 94.6193 35.5 96 35.5H97.5714Z" fill="#7D8AFF"/>
</svg>
