<svg width="130" height="130" viewBox="0 0 130 130" fill="none" xmlns="http://www.w3.org/2000/svg">
<path d="M1 43C1 38.5817 4.58172 35 9 35H32.7001C34.6727 35 36.626 34.6109 38.4481 33.855L102.467 7.29539C105.101 6.20262 108 8.13837 108 10.9901V97.0099C108 99.8616 105.101 101.797 102.467 100.705L38.4481 74.145C36.626 73.3891 34.6727 73 32.7001 73H9C4.58172 73 1 69.4183 1 65V43Z" fill="#D4DFFF"/>
<path d="M20.8942 101.228L30 73H13L4.26484 100.079C3.63996 102.016 5.08453 104 7.11997 104H17.0874C18.8234 104 20.3612 102.88 20.8942 101.228Z" fill="#7D8AFF"/>
<path d="M113.97 64.6297C119.161 63.3082 123 58.6024 123 53C123 47.3976 119.161 42.6918 113.97 41.3703C112.364 40.9615 111 42.3431 111 44V62C111 63.6569 112.364 65.0385 113.97 64.6297Z" fill="#D4DFFF"/>
<path d="M128 101C128 114.807 116.807 126 103 126C89.1929 126 78 114.807 78 101C78 87.1929 89.1929 76 103 76C116.807 76 128 87.1929 128 101Z" fill="#FCE4F0"/>
<path fill-rule="evenodd" clip-rule="evenodd" d="M103 78C90.2975 78 80 88.2975 80 101C80 113.703 90.2975 124 103 124C115.703 124 126 113.703 126 101C126 88.2975 115.703 78 103 78ZM76 101C76 86.0883 88.0883 74 103 74C117.912 74 130 86.0883 130 101C130 115.912 117.912 128 103 128C88.0883 128 76 115.912 76 101Z" fill="#FE65B1"/>
<path d="M110.778 89.6863C111.754 88.71 113.337 88.71 114.314 89.6863C115.29 90.6626 115.29 92.2455 114.314 93.2218L95.2218 112.314C94.2455 113.29 92.6626 113.29 91.6862 112.314C90.7099 111.337 90.7099 109.754 91.6862 108.778L110.778 89.6863Z" fill="#FE64B1"/>
<path d="M91.6862 93.2218C90.7099 92.2455 90.7099 90.6626 91.6862 89.6863C92.6625 88.71 94.2454 88.71 95.2218 89.6863L114.314 108.778C115.29 109.754 115.29 111.337 114.314 112.314C113.337 113.29 111.754 113.29 110.778 112.314L91.6862 93.2218Z" fill="#FE64B1"/>
</svg>
