<svg width="32" height="32" viewBox="0 0 32 32" fill="none" xmlns="http://www.w3.org/2000/svg">
<g clip-path="url(#clip0_106_2291)">
<path d="M32 16C32 7.16344 24.8366 0 16 0C7.16344 0 0 7.16344 0 16C0 24.8366 7.16344 32 16 32C24.8366 32 32 24.8366 32 16Z" fill="#FDE502"/>
<path fill-rule="evenodd" clip-rule="evenodd" d="M16.1905 8.41895C11.6191 8.41895 7.9162 11.2913 7.9162 14.8418C7.9162 17.0437 9.34858 18.9942 11.5276 20.1751L10.6133 23.5504C10.596 23.6169 10.5996 23.6871 10.6235 23.7516C10.6474 23.816 10.6906 23.8715 10.7471 23.9106C10.8037 23.9497 10.8709 23.9704 10.9396 23.9701C11.0084 23.9697 11.0753 23.9482 11.1314 23.9085L15.1543 21.2418C15.4895 21.2418 15.84 21.2952 16.1905 21.2952C20.7619 21.2952 24.4648 18.4151 24.4648 14.8723C24.4648 11.3294 20.7619 8.4494 16.1905 8.4494" fill="#191600"/>
</g>
<defs>
<clipPath id="clip0_106_2291">
<rect width="32" height="32" fill="white"/>
</clipPath>
</defs>
</svg>
