<svg width="20" height="19" viewBox="0 0 20 19" fill="none" xmlns="http://www.w3.org/2000/svg">
<path d="M18.5 4.5L18.5 11.5C18.5 12.0523 18.0523 12.5 17.5 12.5L15.5 12.5L15.5 10C15.5 8.61929 14.3807 7.5 13 7.5L7 7.5C5.61929 7.5 4.5 8.61929 4.5 10L4.5 12.5L2.5 12.5C1.94772 12.5 1.5 12.0523 1.5 11.5L1.5 4.5C1.5 3.94772 1.94771 3.5 2.5 3.5L17.5 3.5C18.0523 3.5 18.5 3.94771 18.5 4.5Z" fill="#3B3FB5" stroke="#3B3FB5"/>
<path d="M15 6L16 6" stroke="#E5ECFF" stroke-width="2" stroke-linecap="round" stroke-linejoin="round"/>
<path d="M4.5 9.5V16C4.5 16.8284 5.17157 17.5 6 17.5H14C14.8284 17.5 15.5 16.8284 15.5 16V9.5C15.5 8.94772 15.0523 8.5 14.5 8.5H5.5C4.94772 8.5 4.5 8.94772 4.5 9.5Z" fill="#E5ECFF" stroke="#3B3FB5" stroke-linejoin="round"/>
</svg>
