<svg width="115" height="21" viewBox="0 0 115 21" fill="none" xmlns="http://www.w3.org/2000/svg">
<path d="M82.4776 8.04932H79.689C79.5643 8.04932 79.4631 8.14957 79.4631 8.27324V20.0488C79.4631 20.1725 79.5643 20.2727 79.689 20.2727H82.4776C82.6023 20.2727 82.7034 20.1725 82.7034 20.0488V8.27324C82.7034 8.14957 82.6023 8.04932 82.4776 8.04932Z" fill="#3B3FB5"/>
<path d="M97.7456 7.36628C97.6891 7.35146 97.631 7.33499 97.5778 7.32182C97.4516 7.29219 97.3237 7.2642 97.1942 7.24279C97.1825 7.24115 97.1726 7.2395 97.161 7.23785C97.1078 7.22797 97.048 7.21974 96.9832 7.21151C96.9616 7.20822 96.9384 7.20492 96.9185 7.20328C96.9135 7.20328 96.9118 7.20328 96.9068 7.20328C96.9035 7.20328 96.9002 7.20328 96.8985 7.20328C96.6793 7.17858 96.5049 7.17035 96.3953 7.17035C96.3837 7.17035 96.3754 7.17199 96.3604 7.17199C96.3455 7.17199 96.3322 7.17364 96.3172 7.17364C94.0701 7.15388 92.9839 8.36569 92.9374 8.41837C92.3678 7.93596 91.6951 7.57044 90.9527 7.36792C90.8963 7.35311 90.8381 7.33664 90.785 7.32347C90.6588 7.29383 90.5309 7.26584 90.4013 7.24444C90.0359 7.18187 89.7569 7.17035 89.6025 7.1687C89.5908 7.1687 89.5825 7.17035 89.5676 7.17035H89.4846C86.9285 7.17035 84.8541 9.2235 84.8541 11.7591V19.863C84.8541 20.161 85.1448 20.403 85.5019 20.403H87.5962C87.8005 20.403 87.9665 20.2384 87.9665 20.0359V11.9682C87.9665 10.9523 88.797 10.1291 89.8217 10.1291C90.8464 10.1291 91.6769 10.9523 91.6769 11.9665L91.6852 19.8515C91.6852 20.1544 91.9343 20.4014 92.2399 20.4014H94.1964C94.3874 20.4014 94.5568 20.3043 94.6581 20.1577C94.7212 20.0672 94.7577 19.9585 94.7577 19.8399V11.9665C94.7577 10.9506 95.5881 10.1274 96.6112 10.1274C97.636 10.1274 98.4664 10.9506 98.4664 11.9665V12.6103L98.4763 19.8515C98.4763 20.1544 98.7255 20.4014 99.0311 20.4014H101.174C101.378 20.4014 101.544 20.2367 101.544 20.0342V12.309C101.544 9.9463 99.9329 7.96395 97.7422 7.36298L97.7456 7.36628Z" fill="#3B3FB5"/>
<path d="M30.5533 8.04639H28.1251C27.9208 8.04639 27.7547 8.21103 27.7547 8.41355V14.9237C27.7547 16.2623 26.7184 17.3572 25.3947 17.4659C25.0559 17.4691 24.4148 17.4659 24.4148 17.4659C23.0911 17.3572 22.0547 16.2623 22.0547 14.9237V8.41355C22.0547 8.21103 21.8887 8.04639 21.6844 8.04639H19.2562C19.0519 8.04639 18.8859 8.21103 18.8859 8.41355V14.9237C18.8859 17.9664 21.3672 20.441 24.4131 20.5415H25.393C28.439 20.4394 30.9203 17.9647 30.9203 14.9237V8.41355C30.9203 8.21103 30.7542 8.04639 30.5499 8.04639H30.5533Z" fill="#3B3FB5"/>
<path d="M69.203 9.51648C69.105 8.21247 67.871 7.48638 66.5689 7.47814C65.0708 7.46662 63.6657 8.30961 62.8635 9.50001C62.2656 10.3842 61.9318 11.4264 61.8986 12.4867L61.8903 12.6596C61.8903 12.6596 61.887 13.3939 61.8903 14.4477H61.887V19.9074C61.887 20.1099 62.053 20.2745 62.2573 20.2745H64.8017C65.006 20.2745 65.1721 20.1099 65.1721 19.9074L65.1489 14.176C65.1538 13.058 65.0459 11.81 65.8663 10.9226C66.5556 10.1767 67.4242 9.86882 68.4024 10.1273C68.5503 10.1668 68.6997 10.2393 68.8459 10.208C69.1515 10.1471 69.2246 9.84412 69.2013 9.51812L69.203 9.51648Z" fill="#3B3FB5"/>
<path d="M59.9765 17.399C59.9831 17.2245 59.9516 17.0549 59.8652 16.9034C59.8054 16.7964 59.7207 16.7009 59.6094 16.6482C59.3288 16.5132 59.0065 16.7256 58.7574 16.8359C58.5531 16.9265 58.3588 17.0351 58.1562 17.1306C56.7461 17.7925 55.1285 17.9605 53.642 17.4451C53.0857 17.2525 52.599 16.8162 52.2685 16.3239C52.1871 16.2053 52.1157 16.0736 52.0609 15.9386C52.0294 15.8513 51.9862 15.7657 51.9696 15.6752C51.9563 15.5731 51.9862 15.5402 52.0476 15.5237C52.0792 15.5204 52.1224 15.5204 52.1705 15.5204C53.7251 15.527 55.2829 15.55 56.8425 15.5583C58.1031 15.5616 59.5613 15.3656 60.2024 14.139C61.2038 12.2159 60.0695 9.80384 58.4435 8.61839C56.8624 7.46915 54.6203 7.28804 52.7867 7.89558C50.2572 8.74022 48.6429 11.3252 48.628 13.9167C48.6114 16.3864 49.94 18.6997 52.1888 19.8621C53.657 20.6129 55.552 20.7496 57.1182 20.2309C57.9021 19.9708 58.6727 19.5839 59.244 18.9796C59.6211 18.5812 59.9566 18.0313 59.9798 17.399H59.9765ZM52.3449 11.4487C52.5691 11.1655 52.8266 10.9695 53.1471 10.8049C53.6271 10.5645 54.1702 10.4312 54.705 10.4246C55.2979 10.4147 55.9357 10.474 56.4522 10.7572C57.158 11.1441 57.6928 11.8109 57.7343 12.4053C57.7377 12.4184 57.7377 12.4283 57.7377 12.4398C57.741 12.5106 57.731 12.5814 57.6995 12.6457C57.648 12.751 57.54 12.8185 57.4271 12.8515C57.271 12.8926 57.1032 12.886 56.9405 12.886L51.8284 12.8926C51.8284 11.9986 52.3433 11.452 52.3433 11.4487H52.3449Z" fill="#3B3FB5"/>
<path d="M77.7543 18.0008C77.5301 17.8066 77.2178 17.9778 76.9671 18.014C76.6216 18.0601 76.2629 18.0552 75.9174 17.986C75.2929 17.8609 74.715 17.5151 74.3844 16.9603C74.1137 16.5124 74.049 15.9806 74.049 15.4636L74.039 13.7958V11.0182H76.6581C76.8591 11.0182 77.0268 10.8568 77.0268 10.6526V8.41509C77.0268 8.21093 76.8591 8.04463 76.6581 8.04463H74.039V5.50248C74.039 5.29996 73.8712 5.13696 73.667 5.13696H71.1491C70.9448 5.13696 70.7771 5.30326 70.7771 5.50248V6.29279L70.7871 14.9532C70.8286 16.2013 70.8618 17.3801 71.5195 18.4833C71.659 18.7171 71.8218 18.936 72.0061 19.1353C72.7784 19.9667 73.8862 20.3866 75.0139 20.4113C76.0951 20.436 77.1497 19.8943 77.7294 18.8998C77.8855 18.6314 78.0416 18.2429 77.7576 17.9992L77.7543 18.0008Z" fill="#3B3FB5"/>
<path d="M48.0069 18.0008C47.7826 17.8066 47.4704 17.9778 47.2196 18.014C46.8742 18.0601 46.5154 18.0552 46.17 17.986C45.5455 17.8609 44.9675 17.5151 44.637 16.9603C44.3663 16.5124 44.3015 15.9806 44.3015 15.4636L44.2916 13.7958V11.0182H46.9107C47.1117 11.0182 47.2794 10.8568 47.2794 10.6526V8.41509C47.2794 8.21093 47.1117 8.04463 46.9107 8.04463H44.2916V5.50248C44.2916 5.29996 44.1238 5.13696 43.9195 5.13696H41.4017C41.1974 5.13696 41.0297 5.30326 41.0297 5.50248V6.29279L41.0396 14.9532C41.0812 16.2013 41.1144 17.3801 41.7721 18.4833C41.9116 18.7171 42.0743 18.936 42.2587 19.1353C43.031 19.9667 44.1388 20.3866 45.2665 20.4113C46.3477 20.436 47.4023 19.8943 47.9819 18.8998C48.1381 18.6314 48.2942 18.2429 48.0102 17.9992L48.0069 18.0008Z" fill="#3B3FB5"/>
<path d="M39.7827 18.0008C39.5585 17.8066 39.2463 17.9778 38.9955 18.014C38.65 18.0601 38.2913 18.0552 37.9458 17.986C37.3214 17.8609 36.7434 17.5151 36.4129 16.9603C36.1422 16.5124 36.0774 15.9806 36.0774 15.4636L36.0674 13.7958V11.0182H38.6866C38.8875 11.0182 39.0553 10.8568 39.0553 10.6526V8.41509C39.0553 8.21093 38.8875 8.04463 38.6866 8.04463H36.0674V5.50248C36.0674 5.29996 35.8997 5.13696 35.6954 5.13696H33.1776C32.9733 5.13696 32.8055 5.30326 32.8055 5.50248V6.29279L32.8155 14.9532C32.857 16.2013 32.8902 17.3801 33.5479 18.4833C33.6874 18.7171 33.8502 18.936 34.0346 19.1353C34.8069 19.9667 35.9146 20.3866 37.0423 20.4113C38.1236 20.436 39.1782 19.8943 39.7578 18.8998C39.9139 18.6314 40.0701 18.2429 39.7861 17.9992L39.7827 18.0008Z" fill="#3B3FB5"/>
<path d="M114.281 17.399C114.288 17.2245 114.256 17.0549 114.17 16.9034C114.11 16.7964 114.026 16.7009 113.914 16.6482C113.634 16.5132 113.311 16.7256 113.062 16.8359C112.858 16.9265 112.664 17.0351 112.461 17.1306C111.051 17.7925 109.433 17.9605 107.947 17.4451C107.39 17.2525 106.904 16.8162 106.573 16.3239C106.492 16.2053 106.421 16.0736 106.366 15.9386C106.334 15.8513 106.291 15.7657 106.274 15.6752C106.261 15.5731 106.291 15.5402 106.352 15.5237C106.384 15.5204 106.427 15.5204 106.475 15.5204C108.03 15.527 109.588 15.55 111.147 15.5583C112.408 15.5616 113.866 15.3656 114.507 14.139C115.509 12.2159 114.374 9.80384 112.748 8.61839C111.167 7.46915 108.925 7.28804 107.092 7.89558C104.562 8.74022 102.948 11.3252 102.933 13.9167C102.916 16.3864 104.245 18.6997 106.494 19.8621C107.962 20.6129 109.857 20.7496 111.423 20.2309C112.207 19.9708 112.978 19.5839 113.549 18.9796C113.926 18.5812 114.261 18.0313 114.285 17.399H114.281ZM106.65 11.4487C106.874 11.1655 107.131 10.9695 107.452 10.8049C107.932 10.5645 108.475 10.4312 109.01 10.4246C109.603 10.4147 110.24 10.474 110.757 10.7572C111.463 11.1441 111.998 11.8109 112.039 12.4053C112.042 12.4184 112.042 12.4283 112.042 12.4398C112.046 12.5106 112.036 12.5814 112.004 12.6457C111.953 12.751 111.845 12.8185 111.732 12.8515C111.576 12.8926 111.408 12.886 111.245 12.886L106.133 12.8926C106.133 11.9986 106.648 11.452 106.648 11.4487H106.65Z" fill="#3B3FB5"/>
<path d="M82.4713 1.40444C82.4713 0.628952 81.8369 0 81.0546 0C80.2724 0 79.6379 0.628952 79.6379 1.40444V3.23367L79.6114 3.2205L78.5617 2.636C77.8791 2.25567 77.0171 2.4977 76.6335 3.17275C76.2498 3.84945 76.494 4.70397 77.1749 5.0843L78.2246 5.6688L80.3604 6.85756C80.377 6.86579 80.3936 6.87237 80.4086 6.88061C80.4567 6.9053 80.5049 6.92671 80.5547 6.94482C80.6062 6.96458 80.6577 6.97939 80.7092 6.99257C80.7341 6.99915 80.759 7.00574 80.7856 7.01068C80.8636 7.0255 80.9417 7.03208 81.0198 7.03373C81.0281 7.03373 81.0347 7.03537 81.043 7.03537C81.0497 7.03537 81.0546 7.03373 81.0613 7.03373C81.1493 7.03373 81.2373 7.02385 81.3254 7.00738C81.327 7.00738 81.3287 7.00738 81.3303 7.00738C81.807 6.91354 82.2322 6.58095 82.4032 6.06231C82.463 5.88284 82.4763 5.70009 82.4597 5.52227L82.4697 2.59649V1.40279L82.4713 1.40444Z" fill="#3B3FB5"/>
<path d="M14.6459 10.743C14.6459 10.743 16.4712 8.80342 16.4629 6.78814C16.4496 3.65984 13.6112 2.47768 13.6112 2.47768C11.2445 1.24941 7.63217 2.11545 7.63716 2.1171C1.94712 3.4244 -0.394661 7.7398 0.0537653 9.6744C0.219849 10.3906 0.7945 11.5217 2.04843 11.5464C2.29258 11.5514 2.48191 11.4822 2.54835 11.4197C2.75263 11.2287 2.65962 10.957 2.61644 10.8401C2.31583 10.0004 2.66294 7.13719 6.96286 5.52859C9.76801 4.47979 11.9105 4.95562 12.6114 6.35676L12.618 6.37323C13.5763 8.90056 9.70656 11.6469 9.70656 11.6469C10.5187 11.7506 13.1379 11.9795 13.5896 14.0194C13.8072 15.004 13.5298 16.2504 12.0351 17.016C10.6914 17.7026 7.05752 17.8376 7.05752 17.8376C7.05752 17.8376 7.07247 10.1502 7.05752 8.31442C7.05586 8.07568 6.88646 8.00159 6.86819 7.98842C6.71207 7.89292 6.55097 7.95713 6.52606 7.96701C5.57772 8.37204 4.77387 9.29242 4.37693 10.1799C4.13279 10.7249 4.00324 11.3505 3.98165 12.0947C3.96836 12.5524 3.95176 20.7782 3.95176 20.7782C3.95176 20.8951 4.04808 20.9906 4.166 20.9906C4.166 20.9906 11.7926 21.2458 14.7372 19.1103C17.6072 17.0292 18.4692 12.5936 14.6459 10.7413V10.743Z" fill="#3B3FB5"/>
</svg>
